<?xml version="1.0" encoding="utf-8" standalone="no"?>
<!DOCTYPE svg PUBLIC "-//W3C//DTD SVG 1.1//EN"
  "http://www.w3.org/Graphics/SVG/1.1/DTD/svg11.dtd">
<svg xmlns:xlink="http://www.w3.org/1999/xlink" width="280.512pt" height="280.512pt" viewBox="0 0 280.512 280.512" xmlns="http://www.w3.org/2000/svg" version="1.1">
 <metadata>
  <rdf:RDF xmlns:dc="http://purl.org/dc/elements/1.1/" xmlns:cc="http://creativecommons.org/ns#" xmlns:rdf="http://www.w3.org/1999/02/22-rdf-syntax-ns#">
   <cc:Work>
    <dc:type rdf:resource="http://purl.org/dc/dcmitype/StillImage"/>
    <dc:date>2024-11-06T13:46:37.779068</dc:date>
    <dc:format>image/svg+xml</dc:format>
    <dc:creator>
     <cc:Agent>
      <dc:title>Matplotlib v3.8.2, https://matplotlib.org/</dc:title>
     </cc:Agent>
    </dc:creator>
   </cc:Work>
  </rdf:RDF>
 </metadata>
 <defs>
  <style type="text/css">*{stroke-linejoin: round; stroke-linecap: butt}</style>
 </defs>
 <g id="figure_1">
  <g id="patch_1">
   <path d="M 0 280.512 
L 280.512 280.512 
L 280.512 0 
L 0 0 
z
" style="fill: #ffffff"/>
  </g>
  <g id="patch_2">
   <path d="M 7.2 273.312 
L 273.312 273.312 
L 273.312 7.2 
L 7.2 7.2 
z
" style="fill: #ffffff"/>
  </g>
  <g id="pane3d_1">
   <g id="patch_3">
    <path d="M 227.591294 52.920706 
L 227.591294 220.399078 
L 218.858301 211.666084 
L 218.858301 61.653699 
" style="fill: #f2f2f2; opacity: 0.5; stroke: #f2f2f2; stroke-linejoin: miter"/>
   </g>
  </g>
  <g id="pane3d_2">
   <g id="patch_4">
    <path d="M 60.112922 220.399078 
L 227.591294 220.399078 
L 218.858301 211.666084 
L 68.845916 211.666084 
" style="fill: #e6e6e6; opacity: 0.5; stroke: #e6e6e6; stroke-linejoin: miter"/>
   </g>
  </g>
  <g id="pane3d_3">
   <g id="patch_5">
    <path d="M 68.845916 61.653699 
L 218.858301 61.653699 
L 218.858301 211.666084 
L 68.845916 211.666084 
" style="fill: #ececec; opacity: 0.5; stroke: #ececec; stroke-linejoin: miter"/>
   </g>
  </g>
  <g id="grid3d_1">
   <g id="Line3DCollection_1">
    <path d="M 71.846163 61.653699 
L 71.846163 211.666084 
L 63.46249 220.399078 
" style="fill: none; stroke: #b0b0b0; stroke-width: 0.8"/>
    <path d="M 89.847649 61.653699 
L 89.847649 211.666084 
L 83.559894 220.399078 
" style="fill: none; stroke: #b0b0b0; stroke-width: 0.8"/>
    <path d="M 107.849136 61.653699 
L 107.849136 211.666084 
L 103.657299 220.399078 
" style="fill: none; stroke: #b0b0b0; stroke-width: 0.8"/>
    <path d="M 125.850622 61.653699 
L 125.850622 211.666084 
L 123.754704 220.399078 
" style="fill: none; stroke: #b0b0b0; stroke-width: 0.8"/>
    <path d="M 143.852108 61.653699 
L 143.852108 211.666084 
L 143.852108 220.399078 
" style="fill: none; stroke: #b0b0b0; stroke-width: 0.8"/>
    <path d="M 161.853594 61.653699 
L 161.853594 211.666084 
L 163.949513 220.399078 
" style="fill: none; stroke: #b0b0b0; stroke-width: 0.8"/>
    <path d="M 179.855081 61.653699 
L 179.855081 211.666084 
L 184.046917 220.399078 
" style="fill: none; stroke: #b0b0b0; stroke-width: 0.8"/>
    <path d="M 197.856567 61.653699 
L 197.856567 211.666084 
L 204.144322 220.399078 
" style="fill: none; stroke: #b0b0b0; stroke-width: 0.8"/>
    <path d="M 215.858053 61.653699 
L 215.858053 211.666084 
L 224.241726 220.399078 
" style="fill: none; stroke: #b0b0b0; stroke-width: 0.8"/>
   </g>
  </g>
  <g id="grid3d_2">
   <g id="Line3DCollection_2">
    <path d="M 227.591294 56.270274 
L 218.858301 64.653947 
L 68.845916 64.653947 
" style="fill: none; stroke: #b0b0b0; stroke-width: 0.8"/>
    <path d="M 227.591294 76.367678 
L 218.858301 82.655433 
L 68.845916 82.655433 
" style="fill: none; stroke: #b0b0b0; stroke-width: 0.8"/>
    <path d="M 227.591294 96.465083 
L 218.858301 100.656919 
L 68.845916 100.656919 
" style="fill: none; stroke: #b0b0b0; stroke-width: 0.8"/>
    <path d="M 227.591294 116.562487 
L 218.858301 118.658406 
L 68.845916 118.658406 
" style="fill: none; stroke: #b0b0b0; stroke-width: 0.8"/>
    <path d="M 227.591294 136.659892 
L 218.858301 136.659892 
L 68.845916 136.659892 
" style="fill: none; stroke: #b0b0b0; stroke-width: 0.8"/>
    <path d="M 227.591294 156.757296 
L 218.858301 154.661378 
L 68.845916 154.661378 
" style="fill: none; stroke: #b0b0b0; stroke-width: 0.8"/>
    <path d="M 227.591294 176.854701 
L 218.858301 172.662864 
L 68.845916 172.662864 
" style="fill: none; stroke: #b0b0b0; stroke-width: 0.8"/>
    <path d="M 227.591294 196.952106 
L 218.858301 190.664351 
L 68.845916 190.664351 
" style="fill: none; stroke: #b0b0b0; stroke-width: 0.8"/>
    <path d="M 227.591294 217.04951 
L 218.858301 208.665837 
L 68.845916 208.665837 
" style="fill: none; stroke: #b0b0b0; stroke-width: 0.8"/>
   </g>
  </g>
  <g id="grid3d_3">
   <g id="Line3DCollection_3">
    <path d="M 60.307465 220.204535 
L 227.396751 220.204535 
L 227.396751 53.115249 
" style="fill: none; stroke: #b0b0b0; stroke-width: 0.8"/>
    <path d="M 61.455999 219.056001 
L 226.248217 219.056001 
L 226.248217 54.263783 
" style="fill: none; stroke: #b0b0b0; stroke-width: 0.8"/>
    <path d="M 62.573382 217.938618 
L 225.130834 217.938618 
L 225.130834 55.381166 
" style="fill: none; stroke: #b0b0b0; stroke-width: 0.8"/>
    <path d="M 63.660865 216.851135 
L 224.043352 216.851135 
L 224.043352 56.468648 
" style="fill: none; stroke: #b0b0b0; stroke-width: 0.8"/>
    <path d="M 64.719631 215.792369 
L 222.984585 215.792369 
L 222.984585 57.527415 
" style="fill: none; stroke: #b0b0b0; stroke-width: 0.8"/>
    <path d="M 65.750804 214.761196 
L 221.953412 214.761196 
L 221.953412 58.558588 
" style="fill: none; stroke: #b0b0b0; stroke-width: 0.8"/>
    <path d="M 66.755449 213.756551 
L 220.948768 213.756551 
L 220.948768 59.563232 
" style="fill: none; stroke: #b0b0b0; stroke-width: 0.8"/>
    <path d="M 67.734575 212.777425 
L 219.969641 212.777425 
L 219.969641 60.542359 
" style="fill: none; stroke: #b0b0b0; stroke-width: 0.8"/>
    <path d="M 68.689144 211.822856 
L 219.015073 211.822856 
L 219.015073 61.496927 
" style="fill: none; stroke: #b0b0b0; stroke-width: 0.8"/>
   </g>
  </g>
  <g id="axis3d_1">
   <g id="line2d_1">
    <path d="M 218.858301 61.653699 
L 68.845916 61.653699 
" style="fill: none; stroke: #000000; stroke-width: 0.8; stroke-linecap: square"/>
   </g>
   <g id="xtick_1">
    <g id="line2d_2">
     <path d="M 71.846163 62.853798 
L 71.846163 59.253501 
" style="fill: none; stroke: #000000; stroke-width: 0.8; stroke-linecap: square"/>
    </g>
   </g>
   <g id="xtick_2">
    <g id="line2d_3">
     <path d="M 89.847649 62.853798 
L 89.847649 59.253501 
" style="fill: none; stroke: #000000; stroke-width: 0.8; stroke-linecap: square"/>
    </g>
   </g>
   <g id="xtick_3">
    <g id="line2d_4">
     <path d="M 107.849136 62.853798 
L 107.849136 59.253501 
" style="fill: none; stroke: #000000; stroke-width: 0.8; stroke-linecap: square"/>
    </g>
   </g>
   <g id="xtick_4">
    <g id="line2d_5">
     <path d="M 125.850622 62.853798 
L 125.850622 59.253501 
" style="fill: none; stroke: #000000; stroke-width: 0.8; stroke-linecap: square"/>
    </g>
   </g>
   <g id="xtick_5">
    <g id="line2d_6">
     <path d="M 143.852108 62.853798 
L 143.852108 59.253501 
" style="fill: none; stroke: #000000; stroke-width: 0.8; stroke-linecap: square"/>
    </g>
   </g>
   <g id="xtick_6">
    <g id="line2d_7">
     <path d="M 161.853594 62.853798 
L 161.853594 59.253501 
" style="fill: none; stroke: #000000; stroke-width: 0.8; stroke-linecap: square"/>
    </g>
   </g>
   <g id="xtick_7">
    <g id="line2d_8">
     <path d="M 179.855081 62.853798 
L 179.855081 59.253501 
" style="fill: none; stroke: #000000; stroke-width: 0.8; stroke-linecap: square"/>
    </g>
   </g>
   <g id="xtick_8">
    <g id="line2d_9">
     <path d="M 197.856567 62.853798 
L 197.856567 59.253501 
" style="fill: none; stroke: #000000; stroke-width: 0.8; stroke-linecap: square"/>
    </g>
   </g>
   <g id="xtick_9">
    <g id="line2d_10">
     <path d="M 215.858053 62.853798 
L 215.858053 59.253501 
" style="fill: none; stroke: #000000; stroke-width: 0.8; stroke-linecap: square"/>
    </g>
   </g>
  </g>
  <g id="axis3d_2">
   <g id="line2d_11">
    <path d="M 68.845916 211.666084 
L 68.845916 61.653699 
" style="fill: none; stroke: #000000; stroke-width: 0.8; stroke-linecap: square"/>
   </g>
   <g id="xtick_10">
    <g id="line2d_12">
     <path d="M 70.046015 64.653947 
L 66.445717 64.653947 
" style="fill: none; stroke: #000000; stroke-width: 0.8; stroke-linecap: square"/>
    </g>
   </g>
   <g id="xtick_11">
    <g id="line2d_13">
     <path d="M 70.046015 82.655433 
L 66.445717 82.655433 
" style="fill: none; stroke: #000000; stroke-width: 0.8; stroke-linecap: square"/>
    </g>
   </g>
   <g id="xtick_12">
    <g id="line2d_14">
     <path d="M 70.046015 100.656919 
L 66.445717 100.656919 
" style="fill: none; stroke: #000000; stroke-width: 0.8; stroke-linecap: square"/>
    </g>
   </g>
   <g id="xtick_13">
    <g id="line2d_15">
     <path d="M 70.046015 118.658406 
L 66.445717 118.658406 
" style="fill: none; stroke: #000000; stroke-width: 0.8; stroke-linecap: square"/>
    </g>
   </g>
   <g id="xtick_14">
    <g id="line2d_16">
     <path d="M 70.046015 136.659892 
L 66.445717 136.659892 
" style="fill: none; stroke: #000000; stroke-width: 0.8; stroke-linecap: square"/>
    </g>
   </g>
   <g id="xtick_15">
    <g id="line2d_17">
     <path d="M 70.046015 154.661378 
L 66.445717 154.661378 
" style="fill: none; stroke: #000000; stroke-width: 0.8; stroke-linecap: square"/>
    </g>
   </g>
   <g id="xtick_16">
    <g id="line2d_18">
     <path d="M 70.046015 172.662864 
L 66.445717 172.662864 
" style="fill: none; stroke: #000000; stroke-width: 0.8; stroke-linecap: square"/>
    </g>
   </g>
   <g id="xtick_17">
    <g id="line2d_19">
     <path d="M 70.046015 190.664351 
L 66.445717 190.664351 
" style="fill: none; stroke: #000000; stroke-width: 0.8; stroke-linecap: square"/>
    </g>
   </g>
   <g id="xtick_18">
    <g id="line2d_20">
     <path d="M 70.046015 208.665837 
L 66.445717 208.665837 
" style="fill: none; stroke: #000000; stroke-width: 0.8; stroke-linecap: square"/>
    </g>
   </g>
  </g>
  <g id="axis3d_3">
   <g id="line2d_21">
    <path d="M 68.845916 211.666084 
L 60.112922 220.399078 
" style="fill: none; stroke: #000000; stroke-width: 0.8; stroke-linecap: square"/>
   </g>
   <g id="xtick_19">
    <g id="line2d_22">
     <path d="M 61.644179 220.204535 
L 57.634036 220.204535 
" style="fill: none; stroke: #000000; stroke-width: 0.8; stroke-linecap: square"/>
    </g>
   </g>
   <g id="xtick_20">
    <g id="line2d_23">
     <path d="M 62.774337 219.056001 
L 58.819323 219.056001 
" style="fill: none; stroke: #000000; stroke-width: 0.8; stroke-linecap: square"/>
    </g>
   </g>
   <g id="xtick_21">
    <g id="line2d_24">
     <path d="M 63.873842 217.938618 
L 59.972463 217.938618 
" style="fill: none; stroke: #000000; stroke-width: 0.8; stroke-linecap: square"/>
    </g>
   </g>
   <g id="xtick_22">
    <g id="line2d_25">
     <path d="M 64.943925 216.851135 
L 61.094745 216.851135 
" style="fill: none; stroke: #000000; stroke-width: 0.8; stroke-linecap: square"/>
    </g>
   </g>
   <g id="xtick_23">
    <g id="line2d_26">
     <path d="M 65.985751 215.792369 
L 62.187392 215.792369 
" style="fill: none; stroke: #000000; stroke-width: 0.8; stroke-linecap: square"/>
    </g>
   </g>
   <g id="xtick_24">
    <g id="line2d_27">
     <path d="M 67.000425 214.761196 
L 63.251563 214.761196 
" style="fill: none; stroke: #000000; stroke-width: 0.8; stroke-linecap: square"/>
    </g>
   </g>
   <g id="xtick_25">
    <g id="line2d_28">
     <path d="M 67.988995 213.756551 
L 64.288356 213.756551 
" style="fill: none; stroke: #000000; stroke-width: 0.8; stroke-linecap: square"/>
    </g>
   </g>
   <g id="xtick_26">
    <g id="line2d_29">
     <path d="M 68.952456 212.777425 
L 65.298814 212.777425 
" style="fill: none; stroke: #000000; stroke-width: 0.8; stroke-linecap: square"/>
    </g>
   </g>
   <g id="xtick_27">
    <g id="line2d_30">
     <path d="M 69.891751 211.822856 
L 66.283929 211.822856 
" style="fill: none; stroke: #000000; stroke-width: 0.8; stroke-linecap: square"/>
    </g>
   </g>
  </g>
  <g id="axes_1">
   <g id="line2d_31">
    <path d="M 199.738561 117.475207 
L 203.87183 117.248627 
" clip-path="url(#p34e2b3d337)" style="fill: none; stroke: #0000ff; stroke-linecap: square"/>
    <defs>
     <path id="mdc55f62318" d="M 0 0.5 
C 0.132602 0.5 0.25979 0.447317 0.353553 0.353553 
C 0.447317 0.25979 0.5 0.132602 0.5 0 
C 0.5 -0.132602 0.447317 -0.25979 0.353553 -0.353553 
C 0.25979 -0.447317 0.132602 -0.5 0 -0.5 
C -0.132602 -0.5 -0.25979 -0.447317 -0.353553 -0.353553 
C -0.447317 -0.25979 -0.5 -0.132602 -0.5 0 
C -0.5 0.132602 -0.447317 0.25979 -0.353553 0.353553 
C -0.25979 0.447317 -0.132602 0.5 0 0.5 
z
" style="stroke: #0000ff; stroke-width: 0.5"/>
    </defs>
    <g clip-path="url(#p34e2b3d337)">
     <use xlink:href="#mdc55f62318" x="199.738561" y="117.475207" style="fill: #ffffff; stroke: #0000ff; stroke-width: 0.5"/>
     <use xlink:href="#mdc55f62318" x="203.87183" y="117.248627" style="fill: #ffffff; stroke: #0000ff; stroke-width: 0.5"/>
    </g>
   </g>
   <g id="line2d_32">
    <path d="M 203.87183 117.248627 
L 201.56012 131.610623 
" clip-path="url(#p34e2b3d337)" style="fill: none; stroke: #0000ff; stroke-linecap: square"/>
    <g clip-path="url(#p34e2b3d337)">
     <use xlink:href="#mdc55f62318" x="203.87183" y="117.248627" style="fill: #ffffff; stroke: #0000ff; stroke-width: 0.5"/>
     <use xlink:href="#mdc55f62318" x="201.56012" y="131.610623" style="fill: #ffffff; stroke: #0000ff; stroke-width: 0.5"/>
    </g>
   </g>
   <g id="line2d_33">
    <path d="M 201.56012 131.610623 
L 199.392213 145.62209 
" clip-path="url(#p34e2b3d337)" style="fill: none; stroke: #0000ff; stroke-linecap: square"/>
    <g clip-path="url(#p34e2b3d337)">
     <use xlink:href="#mdc55f62318" x="201.56012" y="131.610623" style="fill: #ffffff; stroke: #0000ff; stroke-width: 0.5"/>
     <use xlink:href="#mdc55f62318" x="199.392213" y="145.62209" style="fill: #ffffff; stroke: #0000ff; stroke-width: 0.5"/>
    </g>
   </g>
   <g id="line2d_34">
    <path d="M 199.738561 117.475207 
L 195.614245 117.701293 
" clip-path="url(#p34e2b3d337)" style="fill: none; stroke: #0000ff; stroke-linecap: square"/>
    <g clip-path="url(#p34e2b3d337)">
     <use xlink:href="#mdc55f62318" x="199.738561" y="117.475207" style="fill: #ffffff; stroke: #0000ff; stroke-width: 0.5"/>
     <use xlink:href="#mdc55f62318" x="195.614245" y="117.701293" style="fill: #ffffff; stroke: #0000ff; stroke-width: 0.5"/>
    </g>
   </g>
   <g id="line2d_35">
    <path d="M 195.614245 117.701293 
L 198.827321 129.470115 
" clip-path="url(#p34e2b3d337)" style="fill: none; stroke: #0000ff; stroke-linecap: square"/>
    <g clip-path="url(#p34e2b3d337)">
     <use xlink:href="#mdc55f62318" x="195.614245" y="117.701293" style="fill: #ffffff; stroke: #0000ff; stroke-width: 0.5"/>
     <use xlink:href="#mdc55f62318" x="198.827321" y="129.470115" style="fill: #ffffff; stroke: #0000ff; stroke-width: 0.5"/>
    </g>
   </g>
   <g id="line2d_36">
    <path d="M 198.827321 129.470115 
L 201.949525 141.747042 
" clip-path="url(#p34e2b3d337)" style="fill: none; stroke: #0000ff; stroke-linecap: square"/>
    <g clip-path="url(#p34e2b3d337)">
     <use xlink:href="#mdc55f62318" x="198.827321" y="129.470115" style="fill: #ffffff; stroke: #0000ff; stroke-width: 0.5"/>
     <use xlink:href="#mdc55f62318" x="201.949525" y="141.747042" style="fill: #ffffff; stroke: #0000ff; stroke-width: 0.5"/>
    </g>
   </g>
   <g id="line2d_37">
    <path d="M 199.738561 117.475207 
L 199.713602 110.094393 
" clip-path="url(#p34e2b3d337)" style="fill: none; stroke: #0000ff; stroke-linecap: square"/>
    <g clip-path="url(#p34e2b3d337)">
     <use xlink:href="#mdc55f62318" x="199.738561" y="117.475207" style="fill: #ffffff; stroke: #0000ff; stroke-width: 0.5"/>
     <use xlink:href="#mdc55f62318" x="199.713602" y="110.094393" style="fill: #ffffff; stroke: #0000ff; stroke-width: 0.5"/>
    </g>
   </g>
   <g id="line2d_38">
    <path d="M 199.713602 110.094393 
L 199.126898 101.688267 
" clip-path="url(#p34e2b3d337)" style="fill: none; stroke: #0000ff; stroke-linecap: square"/>
    <g clip-path="url(#p34e2b3d337)">
     <use xlink:href="#mdc55f62318" x="199.713602" y="110.094393" style="fill: #ffffff; stroke: #0000ff; stroke-width: 0.5"/>
     <use xlink:href="#mdc55f62318" x="199.126898" y="101.688267" style="fill: #ffffff; stroke: #0000ff; stroke-width: 0.5"/>
    </g>
   </g>
   <g id="line2d_39">
    <path d="M 199.126898 101.688267 
L 199.87416 98.041948 
" clip-path="url(#p34e2b3d337)" style="fill: none; stroke: #0000ff; stroke-linecap: square"/>
    <g clip-path="url(#p34e2b3d337)">
     <use xlink:href="#mdc55f62318" x="199.126898" y="101.688267" style="fill: #ffffff; stroke: #0000ff; stroke-width: 0.5"/>
     <use xlink:href="#mdc55f62318" x="199.87416" y="98.041948" style="fill: #ffffff; stroke: #0000ff; stroke-width: 0.5"/>
    </g>
   </g>
   <g id="line2d_40">
    <path d="M 199.126898 101.688267 
L 194.817818 104.100646 
" clip-path="url(#p34e2b3d337)" style="fill: none; stroke: #0000ff; stroke-linecap: square"/>
    <g clip-path="url(#p34e2b3d337)">
     <use xlink:href="#mdc55f62318" x="199.126898" y="101.688267" style="fill: #ffffff; stroke: #0000ff; stroke-width: 0.5"/>
     <use xlink:href="#mdc55f62318" x="194.817818" y="104.100646" style="fill: #ffffff; stroke: #0000ff; stroke-width: 0.5"/>
    </g>
   </g>
   <g id="line2d_41">
    <path d="M 199.126898 101.688267 
L 203.552525 103.844911 
" clip-path="url(#p34e2b3d337)" style="fill: none; stroke: #0000ff; stroke-linecap: square"/>
    <g clip-path="url(#p34e2b3d337)">
     <use xlink:href="#mdc55f62318" x="199.126898" y="101.688267" style="fill: #ffffff; stroke: #0000ff; stroke-width: 0.5"/>
     <use xlink:href="#mdc55f62318" x="203.552525" y="103.844911" style="fill: #ffffff; stroke: #0000ff; stroke-width: 0.5"/>
    </g>
   </g>
   <g id="line2d_42">
    <path d="M 199.87416 98.041948 
L 199.344711 95.65252 
" clip-path="url(#p34e2b3d337)" style="fill: none; stroke: #0000ff; stroke-linecap: square"/>
    <g clip-path="url(#p34e2b3d337)">
     <use xlink:href="#mdc55f62318" x="199.87416" y="98.041948" style="fill: #ffffff; stroke: #0000ff; stroke-width: 0.5"/>
     <use xlink:href="#mdc55f62318" x="199.344711" y="95.65252" style="fill: #ffffff; stroke: #0000ff; stroke-width: 0.5"/>
    </g>
   </g>
   <g id="line2d_43">
    <path d="M 194.817818 104.100646 
L 189.932191 111.775749 
" clip-path="url(#p34e2b3d337)" style="fill: none; stroke: #0000ff; stroke-linecap: square"/>
    <g clip-path="url(#p34e2b3d337)">
     <use xlink:href="#mdc55f62318" x="194.817818" y="104.100646" style="fill: #ffffff; stroke: #0000ff; stroke-width: 0.5"/>
     <use xlink:href="#mdc55f62318" x="189.932191" y="111.775749" style="fill: #ffffff; stroke: #0000ff; stroke-width: 0.5"/>
    </g>
   </g>
   <g id="line2d_44">
    <path d="M 189.932191 111.775749 
L 185.369963 118.671859 
" clip-path="url(#p34e2b3d337)" style="fill: none; stroke: #0000ff; stroke-linecap: square"/>
    <g clip-path="url(#p34e2b3d337)">
     <use xlink:href="#mdc55f62318" x="189.932191" y="111.775749" style="fill: #ffffff; stroke: #0000ff; stroke-width: 0.5"/>
     <use xlink:href="#mdc55f62318" x="185.369963" y="118.671859" style="fill: #ffffff; stroke: #0000ff; stroke-width: 0.5"/>
    </g>
   </g>
   <g id="line2d_45">
    <path d="M 203.552525 103.844911 
L 207.400041 111.727231 
" clip-path="url(#p34e2b3d337)" style="fill: none; stroke: #0000ff; stroke-linecap: square"/>
    <g clip-path="url(#p34e2b3d337)">
     <use xlink:href="#mdc55f62318" x="203.552525" y="103.844911" style="fill: #ffffff; stroke: #0000ff; stroke-width: 0.5"/>
     <use xlink:href="#mdc55f62318" x="207.400041" y="111.727231" style="fill: #ffffff; stroke: #0000ff; stroke-width: 0.5"/>
    </g>
   </g>
   <g id="line2d_46">
    <path d="M 207.400041 111.727231 
L 209.934346 117.320031 
" clip-path="url(#p34e2b3d337)" style="fill: none; stroke: #0000ff; stroke-linecap: square"/>
    <g clip-path="url(#p34e2b3d337)">
     <use xlink:href="#mdc55f62318" x="207.400041" y="111.727231" style="fill: #ffffff; stroke: #0000ff; stroke-width: 0.5"/>
     <use xlink:href="#mdc55f62318" x="209.934346" y="117.320031" style="fill: #ffffff; stroke: #0000ff; stroke-width: 0.5"/>
    </g>
   </g>
   <g id="line2d_47">
    <path d="M 143.852108 136.659892 
L 147.924691 136.454145 
" clip-path="url(#p34e2b3d337)" style="fill: none; stroke: #ff0000; stroke-linecap: square"/>
    <defs>
     <path id="m0c6da95434" d="M 0 0.5 
C 0.132602 0.5 0.25979 0.447317 0.353553 0.353553 
C 0.447317 0.25979 0.5 0.132602 0.5 0 
C 0.5 -0.132602 0.447317 -0.25979 0.353553 -0.353553 
C 0.25979 -0.447317 0.132602 -0.5 0 -0.5 
C -0.132602 -0.5 -0.25979 -0.447317 -0.353553 -0.353553 
C -0.447317 -0.25979 -0.5 -0.132602 -0.5 0 
C -0.5 0.132602 -0.447317 0.25979 -0.353553 0.353553 
C -0.25979 0.447317 -0.132602 0.5 0 0.5 
z
" style="stroke: #ff0000; stroke-width: 0.5"/>
    </defs>
    <g clip-path="url(#p34e2b3d337)">
     <use xlink:href="#m0c6da95434" x="143.852108" y="136.659892" style="fill: #ffffff; stroke: #ff0000; stroke-width: 0.5"/>
     <use xlink:href="#m0c6da95434" x="147.924691" y="136.454145" style="fill: #ffffff; stroke: #ff0000; stroke-width: 0.5"/>
    </g>
   </g>
   <g id="line2d_48">
    <path d="M 147.924691 136.454145 
L 145.624149 150.812306 
" clip-path="url(#p34e2b3d337)" style="fill: none; stroke: #ff0000; stroke-linecap: square"/>
    <g clip-path="url(#p34e2b3d337)">
     <use xlink:href="#m0c6da95434" x="147.924691" y="136.454145" style="fill: #ffffff; stroke: #ff0000; stroke-width: 0.5"/>
     <use xlink:href="#m0c6da95434" x="145.624149" y="150.812306" style="fill: #ffffff; stroke: #ff0000; stroke-width: 0.5"/>
    </g>
   </g>
   <g id="line2d_49">
    <path d="M 145.624149 150.812306 
L 143.275565 164.885797 
" clip-path="url(#p34e2b3d337)" style="fill: none; stroke: #ff0000; stroke-linecap: square"/>
    <g clip-path="url(#p34e2b3d337)">
     <use xlink:href="#m0c6da95434" x="145.624149" y="150.812306" style="fill: #ffffff; stroke: #ff0000; stroke-width: 0.5"/>
     <use xlink:href="#m0c6da95434" x="143.275565" y="164.885797" style="fill: #ffffff; stroke: #ff0000; stroke-width: 0.5"/>
    </g>
   </g>
   <g id="line2d_50">
    <path d="M 143.852108 136.659892 
L 139.788347 136.865191 
" clip-path="url(#p34e2b3d337)" style="fill: none; stroke: #ff0000; stroke-linecap: square"/>
    <g clip-path="url(#p34e2b3d337)">
     <use xlink:href="#m0c6da95434" x="143.852108" y="136.659892" style="fill: #ffffff; stroke: #ff0000; stroke-width: 0.5"/>
     <use xlink:href="#m0c6da95434" x="139.788347" y="136.865191" style="fill: #ffffff; stroke: #ff0000; stroke-width: 0.5"/>
    </g>
   </g>
   <g id="line2d_51">
    <path d="M 139.788347 136.865191 
L 143.302355 148.530709 
" clip-path="url(#p34e2b3d337)" style="fill: none; stroke: #ff0000; stroke-linecap: square"/>
    <g clip-path="url(#p34e2b3d337)">
     <use xlink:href="#m0c6da95434" x="139.788347" y="136.865191" style="fill: #ffffff; stroke: #ff0000; stroke-width: 0.5"/>
     <use xlink:href="#m0c6da95434" x="143.302355" y="148.530709" style="fill: #ffffff; stroke: #ff0000; stroke-width: 0.5"/>
    </g>
   </g>
   <g id="line2d_52">
    <path d="M 143.302355 148.530709 
L 146.712206 160.708893 
" clip-path="url(#p34e2b3d337)" style="fill: none; stroke: #ff0000; stroke-linecap: square"/>
    <g clip-path="url(#p34e2b3d337)">
     <use xlink:href="#m0c6da95434" x="143.302355" y="148.530709" style="fill: #ffffff; stroke: #ff0000; stroke-width: 0.5"/>
     <use xlink:href="#m0c6da95434" x="146.712206" y="160.708893" style="fill: #ffffff; stroke: #ff0000; stroke-width: 0.5"/>
    </g>
   </g>
   <g id="line2d_53">
    <path d="M 143.852108 136.659892 
L 143.742011 129.308304 
" clip-path="url(#p34e2b3d337)" style="fill: none; stroke: #ff0000; stroke-linecap: square"/>
    <g clip-path="url(#p34e2b3d337)">
     <use xlink:href="#m0c6da95434" x="143.852108" y="136.659892" style="fill: #ffffff; stroke: #ff0000; stroke-width: 0.5"/>
     <use xlink:href="#m0c6da95434" x="143.742011" y="129.308304" style="fill: #ffffff; stroke: #ff0000; stroke-width: 0.5"/>
    </g>
   </g>
   <g id="line2d_54">
    <path d="M 143.742011 129.308304 
L 143.124131 120.91288 
" clip-path="url(#p34e2b3d337)" style="fill: none; stroke: #ff0000; stroke-linecap: square"/>
    <g clip-path="url(#p34e2b3d337)">
     <use xlink:href="#m0c6da95434" x="143.742011" y="129.308304" style="fill: #ffffff; stroke: #ff0000; stroke-width: 0.5"/>
     <use xlink:href="#m0c6da95434" x="143.124131" y="120.91288" style="fill: #ffffff; stroke: #ff0000; stroke-width: 0.5"/>
    </g>
   </g>
   <g id="line2d_55">
    <path d="M 143.124131 120.91288 
L 143.921734 117.249281 
" clip-path="url(#p34e2b3d337)" style="fill: none; stroke: #ff0000; stroke-linecap: square"/>
    <g clip-path="url(#p34e2b3d337)">
     <use xlink:href="#m0c6da95434" x="143.124131" y="120.91288" style="fill: #ffffff; stroke: #ff0000; stroke-width: 0.5"/>
     <use xlink:href="#m0c6da95434" x="143.921734" y="117.249281" style="fill: #ffffff; stroke: #ff0000; stroke-width: 0.5"/>
    </g>
   </g>
   <g id="line2d_56">
    <path d="M 143.124131 120.91288 
L 138.844848 123.315031 
" clip-path="url(#p34e2b3d337)" style="fill: none; stroke: #ff0000; stroke-linecap: square"/>
    <g clip-path="url(#p34e2b3d337)">
     <use xlink:href="#m0c6da95434" x="143.124131" y="120.91288" style="fill: #ffffff; stroke: #ff0000; stroke-width: 0.5"/>
     <use xlink:href="#m0c6da95434" x="138.844848" y="123.315031" style="fill: #ffffff; stroke: #ff0000; stroke-width: 0.5"/>
    </g>
   </g>
   <g id="line2d_57">
    <path d="M 143.124131 120.91288 
L 147.518795 123.080154 
" clip-path="url(#p34e2b3d337)" style="fill: none; stroke: #ff0000; stroke-linecap: square"/>
    <g clip-path="url(#p34e2b3d337)">
     <use xlink:href="#m0c6da95434" x="143.124131" y="120.91288" style="fill: #ffffff; stroke: #ff0000; stroke-width: 0.5"/>
     <use xlink:href="#m0c6da95434" x="147.518795" y="123.080154" style="fill: #ffffff; stroke: #ff0000; stroke-width: 0.5"/>
    </g>
   </g>
   <g id="line2d_58">
    <path d="M 143.921734 117.249281 
L 143.278384 114.898953 
" clip-path="url(#p34e2b3d337)" style="fill: none; stroke: #ff0000; stroke-linecap: square"/>
    <g clip-path="url(#p34e2b3d337)">
     <use xlink:href="#m0c6da95434" x="143.921734" y="117.249281" style="fill: #ffffff; stroke: #ff0000; stroke-width: 0.5"/>
     <use xlink:href="#m0c6da95434" x="143.278384" y="114.898953" style="fill: #ffffff; stroke: #ff0000; stroke-width: 0.5"/>
    </g>
   </g>
   <g id="line2d_59">
    <path d="M 138.844848 123.315031 
L 133.926305 131.001433 
" clip-path="url(#p34e2b3d337)" style="fill: none; stroke: #ff0000; stroke-linecap: square"/>
    <g clip-path="url(#p34e2b3d337)">
     <use xlink:href="#m0c6da95434" x="138.844848" y="123.315031" style="fill: #ffffff; stroke: #ff0000; stroke-width: 0.5"/>
     <use xlink:href="#m0c6da95434" x="133.926305" y="131.001433" style="fill: #ffffff; stroke: #ff0000; stroke-width: 0.5"/>
    </g>
   </g>
   <g id="line2d_60">
    <path d="M 133.926305 131.001433 
L 129.355876 137.900358 
" clip-path="url(#p34e2b3d337)" style="fill: none; stroke: #ff0000; stroke-linecap: square"/>
    <g clip-path="url(#p34e2b3d337)">
     <use xlink:href="#m0c6da95434" x="133.926305" y="131.001433" style="fill: #ffffff; stroke: #ff0000; stroke-width: 0.5"/>
     <use xlink:href="#m0c6da95434" x="129.355876" y="137.900358" style="fill: #ffffff; stroke: #ff0000; stroke-width: 0.5"/>
    </g>
   </g>
   <g id="line2d_61">
    <path d="M 147.518795 123.080154 
L 151.469497 130.927052 
" clip-path="url(#p34e2b3d337)" style="fill: none; stroke: #ff0000; stroke-linecap: square"/>
    <g clip-path="url(#p34e2b3d337)">
     <use xlink:href="#m0c6da95434" x="147.518795" y="123.080154" style="fill: #ffffff; stroke: #ff0000; stroke-width: 0.5"/>
     <use xlink:href="#m0c6da95434" x="151.469497" y="130.927052" style="fill: #ffffff; stroke: #ff0000; stroke-width: 0.5"/>
    </g>
   </g>
   <g id="line2d_62">
    <path d="M 151.469497 130.927052 
L 154.216302 136.446904 
" clip-path="url(#p34e2b3d337)" style="fill: none; stroke: #ff0000; stroke-linecap: square"/>
    <g clip-path="url(#p34e2b3d337)">
     <use xlink:href="#m0c6da95434" x="151.469497" y="130.927052" style="fill: #ffffff; stroke: #ff0000; stroke-width: 0.5"/>
     <use xlink:href="#m0c6da95434" x="154.216302" y="136.446904" style="fill: #ffffff; stroke: #ff0000; stroke-width: 0.5"/>
    </g>
   </g>
   <g id="legend_1">
    <g id="patch_6">
     <path d="M 141.657312 44.55625 
L 266.312 44.55625 
Q 268.312 44.55625 268.312 42.55625 
L 268.312 14.2 
Q 268.312 12.2 266.312 12.2 
L 141.657312 12.2 
Q 139.657312 12.2 139.657312 14.2 
L 139.657312 42.55625 
Q 139.657312 44.55625 141.657312 44.55625 
z
" style="fill: #ffffff; opacity: 0.8; stroke: #cccccc; stroke-linejoin: miter"/>
    </g>
    <g id="line2d_63">
     <path d="M 143.657312 20.298437 
L 153.657312 20.298437 
L 163.657312 20.298437 
" style="fill: none; stroke: #0000ff; stroke-linecap: square"/>
     <g>
      <use xlink:href="#mdc55f62318" x="153.657312" y="20.298437" style="fill: #ffffff; stroke: #0000ff; stroke-width: 0.5"/>
     </g>
    </g>
    <g id="text_1">
     <!-- Original 3D Pose -->
     <g transform="translate(171.657312 23.798437) scale(0.1 -0.1)">
      <defs>
       <path id="DejaVuSans-4f" d="M 2522 4238 
Q 1834 4238 1429 3725 
Q 1025 3213 1025 2328 
Q 1025 1447 1429 934 
Q 1834 422 2522 422 
Q 3209 422 3611 934 
Q 4013 1447 4013 2328 
Q 4013 3213 3611 3725 
Q 3209 4238 2522 4238 
z
M 2522 4750 
Q 3503 4750 4090 4092 
Q 4678 3434 4678 2328 
Q 4678 1225 4090 567 
Q 3503 -91 2522 -91 
Q 1538 -91 948 565 
Q 359 1222 359 2328 
Q 359 3434 948 4092 
Q 1538 4750 2522 4750 
z
" transform="scale(0.015625)"/>
       <path id="DejaVuSans-72" d="M 2631 2963 
Q 2534 3019 2420 3045 
Q 2306 3072 2169 3072 
Q 1681 3072 1420 2755 
Q 1159 2438 1159 1844 
L 1159 0 
L 581 0 
L 581 3500 
L 1159 3500 
L 1159 2956 
Q 1341 3275 1631 3429 
Q 1922 3584 2338 3584 
Q 2397 3584 2469 3576 
Q 2541 3569 2628 3553 
L 2631 2963 
z
" transform="scale(0.015625)"/>
       <path id="DejaVuSans-69" d="M 603 3500 
L 1178 3500 
L 1178 0 
L 603 0 
L 603 3500 
z
M 603 4863 
L 1178 4863 
L 1178 4134 
L 603 4134 
L 603 4863 
z
" transform="scale(0.015625)"/>
       <path id="DejaVuSans-67" d="M 2906 1791 
Q 2906 2416 2648 2759 
Q 2391 3103 1925 3103 
Q 1463 3103 1205 2759 
Q 947 2416 947 1791 
Q 947 1169 1205 825 
Q 1463 481 1925 481 
Q 2391 481 2648 825 
Q 2906 1169 2906 1791 
z
M 3481 434 
Q 3481 -459 3084 -895 
Q 2688 -1331 1869 -1331 
Q 1566 -1331 1297 -1286 
Q 1028 -1241 775 -1147 
L 775 -588 
Q 1028 -725 1275 -790 
Q 1522 -856 1778 -856 
Q 2344 -856 2625 -561 
Q 2906 -266 2906 331 
L 2906 616 
Q 2728 306 2450 153 
Q 2172 0 1784 0 
Q 1141 0 747 490 
Q 353 981 353 1791 
Q 353 2603 747 3093 
Q 1141 3584 1784 3584 
Q 2172 3584 2450 3431 
Q 2728 3278 2906 2969 
L 2906 3500 
L 3481 3500 
L 3481 434 
z
" transform="scale(0.015625)"/>
       <path id="DejaVuSans-6e" d="M 3513 2113 
L 3513 0 
L 2938 0 
L 2938 2094 
Q 2938 2591 2744 2837 
Q 2550 3084 2163 3084 
Q 1697 3084 1428 2787 
Q 1159 2491 1159 1978 
L 1159 0 
L 581 0 
L 581 3500 
L 1159 3500 
L 1159 2956 
Q 1366 3272 1645 3428 
Q 1925 3584 2291 3584 
Q 2894 3584 3203 3211 
Q 3513 2838 3513 2113 
z
" transform="scale(0.015625)"/>
       <path id="DejaVuSans-61" d="M 2194 1759 
Q 1497 1759 1228 1600 
Q 959 1441 959 1056 
Q 959 750 1161 570 
Q 1363 391 1709 391 
Q 2188 391 2477 730 
Q 2766 1069 2766 1631 
L 2766 1759 
L 2194 1759 
z
M 3341 1997 
L 3341 0 
L 2766 0 
L 2766 531 
Q 2569 213 2275 61 
Q 1981 -91 1556 -91 
Q 1019 -91 701 211 
Q 384 513 384 1019 
Q 384 1609 779 1909 
Q 1175 2209 1959 2209 
L 2766 2209 
L 2766 2266 
Q 2766 2663 2505 2880 
Q 2244 3097 1772 3097 
Q 1472 3097 1187 3025 
Q 903 2953 641 2809 
L 641 3341 
Q 956 3463 1253 3523 
Q 1550 3584 1831 3584 
Q 2591 3584 2966 3190 
Q 3341 2797 3341 1997 
z
" transform="scale(0.015625)"/>
       <path id="DejaVuSans-6c" d="M 603 4863 
L 1178 4863 
L 1178 0 
L 603 0 
L 603 4863 
z
" transform="scale(0.015625)"/>
       <path id="DejaVuSans-20" transform="scale(0.015625)"/>
       <path id="DejaVuSans-33" d="M 2597 2516 
Q 3050 2419 3304 2112 
Q 3559 1806 3559 1356 
Q 3559 666 3084 287 
Q 2609 -91 1734 -91 
Q 1441 -91 1130 -33 
Q 819 25 488 141 
L 488 750 
Q 750 597 1062 519 
Q 1375 441 1716 441 
Q 2309 441 2620 675 
Q 2931 909 2931 1356 
Q 2931 1769 2642 2001 
Q 2353 2234 1838 2234 
L 1294 2234 
L 1294 2753 
L 1863 2753 
Q 2328 2753 2575 2939 
Q 2822 3125 2822 3475 
Q 2822 3834 2567 4026 
Q 2313 4219 1838 4219 
Q 1578 4219 1281 4162 
Q 984 4106 628 3988 
L 628 4550 
Q 988 4650 1302 4700 
Q 1616 4750 1894 4750 
Q 2613 4750 3031 4423 
Q 3450 4097 3450 3541 
Q 3450 3153 3228 2886 
Q 3006 2619 2597 2516 
z
" transform="scale(0.015625)"/>
       <path id="DejaVuSans-44" d="M 1259 4147 
L 1259 519 
L 2022 519 
Q 2988 519 3436 956 
Q 3884 1394 3884 2338 
Q 3884 3275 3436 3711 
Q 2988 4147 2022 4147 
L 1259 4147 
z
M 628 4666 
L 1925 4666 
Q 3281 4666 3915 4102 
Q 4550 3538 4550 2338 
Q 4550 1131 3912 565 
Q 3275 0 1925 0 
L 628 0 
L 628 4666 
z
" transform="scale(0.015625)"/>
       <path id="DejaVuSans-50" d="M 1259 4147 
L 1259 2394 
L 2053 2394 
Q 2494 2394 2734 2622 
Q 2975 2850 2975 3272 
Q 2975 3691 2734 3919 
Q 2494 4147 2053 4147 
L 1259 4147 
z
M 628 4666 
L 2053 4666 
Q 2838 4666 3239 4311 
Q 3641 3956 3641 3272 
Q 3641 2581 3239 2228 
Q 2838 1875 2053 1875 
L 1259 1875 
L 1259 0 
L 628 0 
L 628 4666 
z
" transform="scale(0.015625)"/>
       <path id="DejaVuSans-6f" d="M 1959 3097 
Q 1497 3097 1228 2736 
Q 959 2375 959 1747 
Q 959 1119 1226 758 
Q 1494 397 1959 397 
Q 2419 397 2687 759 
Q 2956 1122 2956 1747 
Q 2956 2369 2687 2733 
Q 2419 3097 1959 3097 
z
M 1959 3584 
Q 2709 3584 3137 3096 
Q 3566 2609 3566 1747 
Q 3566 888 3137 398 
Q 2709 -91 1959 -91 
Q 1206 -91 779 398 
Q 353 888 353 1747 
Q 353 2609 779 3096 
Q 1206 3584 1959 3584 
z
" transform="scale(0.015625)"/>
       <path id="DejaVuSans-73" d="M 2834 3397 
L 2834 2853 
Q 2591 2978 2328 3040 
Q 2066 3103 1784 3103 
Q 1356 3103 1142 2972 
Q 928 2841 928 2578 
Q 928 2378 1081 2264 
Q 1234 2150 1697 2047 
L 1894 2003 
Q 2506 1872 2764 1633 
Q 3022 1394 3022 966 
Q 3022 478 2636 193 
Q 2250 -91 1575 -91 
Q 1294 -91 989 -36 
Q 684 19 347 128 
L 347 722 
Q 666 556 975 473 
Q 1284 391 1588 391 
Q 1994 391 2212 530 
Q 2431 669 2431 922 
Q 2431 1156 2273 1281 
Q 2116 1406 1581 1522 
L 1381 1569 
Q 847 1681 609 1914 
Q 372 2147 372 2553 
Q 372 3047 722 3315 
Q 1072 3584 1716 3584 
Q 2034 3584 2315 3537 
Q 2597 3491 2834 3397 
z
" transform="scale(0.015625)"/>
       <path id="DejaVuSans-65" d="M 3597 1894 
L 3597 1613 
L 953 1613 
Q 991 1019 1311 708 
Q 1631 397 2203 397 
Q 2534 397 2845 478 
Q 3156 559 3463 722 
L 3463 178 
Q 3153 47 2828 -22 
Q 2503 -91 2169 -91 
Q 1331 -91 842 396 
Q 353 884 353 1716 
Q 353 2575 817 3079 
Q 1281 3584 2069 3584 
Q 2775 3584 3186 3129 
Q 3597 2675 3597 1894 
z
M 3022 2063 
Q 3016 2534 2758 2815 
Q 2500 3097 2075 3097 
Q 1594 3097 1305 2825 
Q 1016 2553 972 2059 
L 3022 2063 
z
" transform="scale(0.015625)"/>
      </defs>
      <use xlink:href="#DejaVuSans-4f"/>
      <use xlink:href="#DejaVuSans-72" x="78.710938"/>
      <use xlink:href="#DejaVuSans-69" x="119.824219"/>
      <use xlink:href="#DejaVuSans-67" x="147.607422"/>
      <use xlink:href="#DejaVuSans-69" x="211.083984"/>
      <use xlink:href="#DejaVuSans-6e" x="238.867188"/>
      <use xlink:href="#DejaVuSans-61" x="302.246094"/>
      <use xlink:href="#DejaVuSans-6c" x="363.525391"/>
      <use xlink:href="#DejaVuSans-20" x="391.308594"/>
      <use xlink:href="#DejaVuSans-33" x="423.095703"/>
      <use xlink:href="#DejaVuSans-44" x="486.71875"/>
      <use xlink:href="#DejaVuSans-20" x="563.720703"/>
      <use xlink:href="#DejaVuSans-50" x="595.507812"/>
      <use xlink:href="#DejaVuSans-6f" x="652.185547"/>
      <use xlink:href="#DejaVuSans-73" x="713.367188"/>
      <use xlink:href="#DejaVuSans-65" x="765.466797"/>
     </g>
    </g>
    <g id="line2d_64">
     <path d="M 143.657312 34.976562 
L 153.657312 34.976562 
L 163.657312 34.976562 
" style="fill: none; stroke: #ff0000; stroke-linecap: square"/>
     <g>
      <use xlink:href="#m0c6da95434" x="153.657312" y="34.976562" style="fill: #ffffff; stroke: #ff0000; stroke-width: 0.5"/>
     </g>
    </g>
    <g id="text_2">
     <!-- Canonical 3D Pose -->
     <g transform="translate(171.657312 38.476562) scale(0.1 -0.1)">
      <defs>
       <path id="DejaVuSans-43" d="M 4122 4306 
L 4122 3641 
Q 3803 3938 3442 4084 
Q 3081 4231 2675 4231 
Q 1875 4231 1450 3742 
Q 1025 3253 1025 2328 
Q 1025 1406 1450 917 
Q 1875 428 2675 428 
Q 3081 428 3442 575 
Q 3803 722 4122 1019 
L 4122 359 
Q 3791 134 3420 21 
Q 3050 -91 2638 -91 
Q 1578 -91 968 557 
Q 359 1206 359 2328 
Q 359 3453 968 4101 
Q 1578 4750 2638 4750 
Q 3056 4750 3426 4639 
Q 3797 4528 4122 4306 
z
" transform="scale(0.015625)"/>
       <path id="DejaVuSans-63" d="M 3122 3366 
L 3122 2828 
Q 2878 2963 2633 3030 
Q 2388 3097 2138 3097 
Q 1578 3097 1268 2742 
Q 959 2388 959 1747 
Q 959 1106 1268 751 
Q 1578 397 2138 397 
Q 2388 397 2633 464 
Q 2878 531 3122 666 
L 3122 134 
Q 2881 22 2623 -34 
Q 2366 -91 2075 -91 
Q 1284 -91 818 406 
Q 353 903 353 1747 
Q 353 2603 823 3093 
Q 1294 3584 2113 3584 
Q 2378 3584 2631 3529 
Q 2884 3475 3122 3366 
z
" transform="scale(0.015625)"/>
      </defs>
      <use xlink:href="#DejaVuSans-43"/>
      <use xlink:href="#DejaVuSans-61" x="69.824219"/>
      <use xlink:href="#DejaVuSans-6e" x="131.103516"/>
      <use xlink:href="#DejaVuSans-6f" x="194.482422"/>
      <use xlink:href="#DejaVuSans-6e" x="255.664062"/>
      <use xlink:href="#DejaVuSans-69" x="319.042969"/>
      <use xlink:href="#DejaVuSans-63" x="346.826172"/>
      <use xlink:href="#DejaVuSans-61" x="401.806641"/>
      <use xlink:href="#DejaVuSans-6c" x="463.085938"/>
      <use xlink:href="#DejaVuSans-20" x="490.869141"/>
      <use xlink:href="#DejaVuSans-33" x="522.65625"/>
      <use xlink:href="#DejaVuSans-44" x="586.279297"/>
      <use xlink:href="#DejaVuSans-20" x="663.28125"/>
      <use xlink:href="#DejaVuSans-50" x="695.068359"/>
      <use xlink:href="#DejaVuSans-6f" x="751.746094"/>
      <use xlink:href="#DejaVuSans-73" x="812.927734"/>
      <use xlink:href="#DejaVuSans-65" x="865.027344"/>
     </g>
    </g>
   </g>
  </g>
 </g>
 <defs>
  <clipPath id="p34e2b3d337">
   <rect x="7.2" y="7.2" width="266.112" height="266.112"/>
  </clipPath>
 </defs>
</svg>
