<?xml version="1.0" encoding="utf-8" standalone="no"?>
<!DOCTYPE svg PUBLIC "-//W3C//DTD SVG 1.1//EN"
  "http://www.w3.org/Graphics/SVG/1.1/DTD/svg11.dtd">
<svg xmlns:xlink="http://www.w3.org/1999/xlink" width="330.152727pt" height="280.512pt" viewBox="0 0 330.152727 280.512" xmlns="http://www.w3.org/2000/svg" version="1.1">
 <metadata>
  <rdf:RDF xmlns:dc="http://purl.org/dc/elements/1.1/" xmlns:cc="http://creativecommons.org/ns#" xmlns:rdf="http://www.w3.org/1999/02/22-rdf-syntax-ns#">
   <cc:Work>
    <dc:type rdf:resource="http://purl.org/dc/dcmitype/StillImage"/>
    <dc:date>2024-11-16T01:49:18.434226</dc:date>
    <dc:format>image/svg+xml</dc:format>
    <dc:creator>
     <cc:Agent>
      <dc:title>Matplotlib v3.8.2, https://matplotlib.org/</dc:title>
     </cc:Agent>
    </dc:creator>
   </cc:Work>
  </rdf:RDF>
 </metadata>
 <defs>
  <style type="text/css">*{stroke-linejoin: round; stroke-linecap: butt}</style>
 </defs>
 <g id="figure_1">
  <g id="patch_1">
   <path d="M 0 280.512 
L 330.152727 280.512 
L 330.152727 0 
L 0 0 
z
" style="fill: #ffffff"/>
  </g>
  <g id="patch_2">
   <path d="M 7.2 128.16 
L 128.16 128.16 
L 128.16 7.2 
L 7.2 7.2 
z
" style="fill: #ffffff"/>
  </g>
  <g id="pane3d_1">
   <g id="patch_3">
    <path d="M 98.300514 116.570371 
L 95.939817 112.455472 
L 95.939817 19.635339 
L 98.300514 15.520439 
" style="fill: #f2f2f2; opacity: 0.5; stroke: #f2f2f2; stroke-linejoin: miter"/>
   </g>
  </g>
  <g id="pane3d_2">
   <g id="patch_4">
    <path d="M 42.689372 112.455472 
L 95.939817 112.455472 
L 95.939817 19.635339 
L 42.689372 19.635339 
" style="fill: #e6e6e6; opacity: 0.5; stroke: #e6e6e6; stroke-linejoin: miter"/>
   </g>
  </g>
  <g id="pane3d_3">
   <g id="patch_5">
    <path d="M 40.328675 116.570371 
L 98.300514 116.570371 
L 95.939817 112.455472 
L 42.689372 112.455472 
" style="fill: #ececec; opacity: 0.5; stroke: #ececec; stroke-linejoin: miter"/>
   </g>
  </g>
  <g id="grid3d_1">
   <g id="Line3DCollection_1">
    <path d="M 41.488112 116.570371 
L 43.754381 112.455472 
L 43.754381 19.635339 
" style="fill: none; stroke: #b0b0b0; stroke-width: 0.8"/>
    <path d="M 55.401353 116.570371 
L 56.534488 112.455472 
L 56.534488 19.635339 
" style="fill: none; stroke: #b0b0b0; stroke-width: 0.8"/>
    <path d="M 69.314595 116.570371 
L 69.314595 112.455472 
L 69.314595 19.635339 
" style="fill: none; stroke: #b0b0b0; stroke-width: 0.8"/>
    <path d="M 83.227836 116.570371 
L 82.094701 112.455472 
L 82.094701 19.635339 
" style="fill: none; stroke: #b0b0b0; stroke-width: 0.8"/>
    <path d="M 97.141078 116.570371 
L 94.874808 112.455472 
L 94.874808 19.635339 
" style="fill: none; stroke: #b0b0b0; stroke-width: 0.8"/>
   </g>
  </g>
  <g id="grid3d_2">
   <g id="Line3DCollection_2">
    <path d="M 98.249205 15.609876 
L 98.249205 116.480935 
L 40.379984 116.480935 
" style="fill: none; stroke: #b0b0b0; stroke-width: 0.8"/>
    <path d="M 97.64737 16.658927 
L 97.64737 115.431884 
L 40.98182 115.431884 
" style="fill: none; stroke: #b0b0b0; stroke-width: 0.8"/>
    <path d="M 97.07006 17.665228 
L 97.07006 114.425583 
L 41.559129 114.425583 
" style="fill: none; stroke: #b0b0b0; stroke-width: 0.8"/>
    <path d="M 96.515807 18.631339 
L 96.515807 113.459472 
L 42.113382 113.459472 
" style="fill: none; stroke: #b0b0b0; stroke-width: 0.8"/>
    <path d="M 95.983257 19.55962 
L 95.983257 112.531191 
L 42.645932 112.531191 
" style="fill: none; stroke: #b0b0b0; stroke-width: 0.8"/>
   </g>
  </g>
  <g id="grid3d_3">
   <g id="Line3DCollection_3">
    <path d="M 42.689372 110.599069 
L 95.939817 110.599069 
L 98.300514 114.549373 
" style="fill: none; stroke: #b0b0b0; stroke-width: 0.8"/>
    <path d="M 42.689372 85.038856 
L 95.939817 85.038856 
L 98.300514 86.72289 
" style="fill: none; stroke: #b0b0b0; stroke-width: 0.8"/>
    <path d="M 42.689372 59.478642 
L 95.939817 59.478642 
L 98.300514 58.896407 
" style="fill: none; stroke: #b0b0b0; stroke-width: 0.8"/>
    <path d="M 42.689372 33.918428 
L 95.939817 33.918428 
L 98.300514 31.069924 
" style="fill: none; stroke: #b0b0b0; stroke-width: 0.8"/>
   </g>
  </g>
  <g id="axis3d_1">
   <g id="line2d_1">
    <path d="M 98.300514 116.570371 
L 40.328675 116.570371 
" style="fill: none; stroke: #000000; stroke-width: 0.8; stroke-linecap: square"/>
   </g>
   <g id="xtick_1">
    <g id="line2d_2">
     <path d="M 41.507835 116.534559 
L 41.44858 116.642149 
" style="fill: none; stroke: #000000; stroke-width: 0.8; stroke-linecap: square"/>
    </g>
   </g>
   <g id="xtick_2">
    <g id="line2d_3">
     <path d="M 55.411215 116.534559 
L 55.381587 116.642149 
" style="fill: none; stroke: #000000; stroke-width: 0.8; stroke-linecap: square"/>
    </g>
   </g>
   <g id="xtick_3">
    <g id="line2d_4">
     <path d="M 69.314595 116.534559 
L 69.314595 116.642149 
" style="fill: none; stroke: #000000; stroke-width: 0.8; stroke-linecap: square"/>
    </g>
   </g>
   <g id="xtick_4">
    <g id="line2d_5">
     <path d="M 83.217974 116.534559 
L 83.247602 116.642149 
" style="fill: none; stroke: #000000; stroke-width: 0.8; stroke-linecap: square"/>
    </g>
   </g>
   <g id="xtick_5">
    <g id="line2d_6">
     <path d="M 97.121354 116.534559 
L 97.180609 116.642149 
" style="fill: none; stroke: #000000; stroke-width: 0.8; stroke-linecap: square"/>
    </g>
   </g>
  </g>
  <g id="axis3d_2">
   <g id="line2d_7">
    <path d="M 42.689372 112.455472 
L 40.328675 116.570371 
" style="fill: none; stroke: #000000; stroke-width: 0.8; stroke-linecap: square"/>
   </g>
   <g id="xtick_6">
    <g id="line2d_8">
     <path d="M 40.842938 116.480935 
L 39.454076 116.480935 
" style="fill: none; stroke: #000000; stroke-width: 0.8; stroke-linecap: square"/>
    </g>
   </g>
   <g id="xtick_7">
    <g id="line2d_9">
     <path d="M 41.435144 115.431884 
L 40.075171 115.431884 
" style="fill: none; stroke: #000000; stroke-width: 0.8; stroke-linecap: square"/>
    </g>
   </g>
   <g id="xtick_8">
    <g id="line2d_10">
     <path d="M 42.003217 114.425583 
L 40.670954 114.425583 
" style="fill: none; stroke: #000000; stroke-width: 0.8; stroke-linecap: square"/>
    </g>
   </g>
   <g id="xtick_9">
    <g id="line2d_11">
     <path d="M 42.548602 113.459472 
L 41.242943 113.459472 
" style="fill: none; stroke: #000000; stroke-width: 0.8; stroke-linecap: square"/>
    </g>
   </g>
   <g id="xtick_10">
    <g id="line2d_12">
     <path d="M 43.072631 112.531191 
L 41.792535 112.531191 
" style="fill: none; stroke: #000000; stroke-width: 0.8; stroke-linecap: square"/>
    </g>
   </g>
  </g>
  <g id="axis3d_3">
   <g id="line2d_13">
    <path d="M 42.689372 112.455472 
L 42.689372 19.635339 
" style="fill: none; stroke: #000000; stroke-width: 0.8; stroke-linecap: square"/>
   </g>
   <g id="xtick_11">
    <g id="line2d_14">
     <path d="M 43.115376 110.599069 
L 41.837365 110.599069 
" style="fill: none; stroke: #000000; stroke-width: 0.8; stroke-linecap: square"/>
    </g>
   </g>
   <g id="xtick_12">
    <g id="line2d_15">
     <path d="M 43.115376 85.038856 
L 41.837365 85.038856 
" style="fill: none; stroke: #000000; stroke-width: 0.8; stroke-linecap: square"/>
    </g>
   </g>
   <g id="xtick_13">
    <g id="line2d_16">
     <path d="M 43.115376 59.478642 
L 41.837365 59.478642 
" style="fill: none; stroke: #000000; stroke-width: 0.8; stroke-linecap: square"/>
    </g>
   </g>
   <g id="xtick_14">
    <g id="line2d_17">
     <path d="M 43.115376 33.918428 
L 41.837365 33.918428 
" style="fill: none; stroke: #000000; stroke-width: 0.8; stroke-linecap: square"/>
    </g>
   </g>
  </g>
  <g id="axes_1">
   <g id="line2d_18">
    <path d="M 69.314595 32.923058 
L 70.966732 33.552483 
" clip-path="url(#pc71d696435)" style="fill: none; stroke: #ff0000; stroke-linecap: square"/>
    <defs>
     <path id="m347dc56d2a" d="M 0 0.5 
C 0.132602 0.5 0.25979 0.447317 0.353553 0.353553 
C 0.447317 0.25979 0.5 0.132602 0.5 0 
C 0.5 -0.132602 0.447317 -0.25979 0.353553 -0.353553 
C 0.25979 -0.447317 0.132602 -0.5 0 -0.5 
C -0.132602 -0.5 -0.25979 -0.447317 -0.353553 -0.353553 
C -0.447317 -0.25979 -0.5 -0.132602 -0.5 0 
C -0.5 0.132602 -0.447317 0.25979 -0.353553 0.353553 
C -0.25979 0.447317 -0.132602 0.5 0 0.5 
z
" style="stroke: #ff0000; stroke-width: 0.5"/>
    </defs>
    <g clip-path="url(#pc71d696435)">
     <use xlink:href="#m347dc56d2a" x="69.314595" y="32.923058" style="fill: #ffffff; stroke: #ff0000; stroke-width: 0.5"/>
     <use xlink:href="#m347dc56d2a" x="70.966732" y="33.552483" style="fill: #ffffff; stroke: #ff0000; stroke-width: 0.5"/>
    </g>
   </g>
   <g id="line2d_19">
    <path d="M 70.966732 33.552483 
L 70.027257 33.723962 
" clip-path="url(#pc71d696435)" style="fill: none; stroke: #ff0000; stroke-linecap: square"/>
    <g clip-path="url(#pc71d696435)">
     <use xlink:href="#m347dc56d2a" x="70.966732" y="33.552483" style="fill: #ffffff; stroke: #ff0000; stroke-width: 0.5"/>
     <use xlink:href="#m347dc56d2a" x="70.027257" y="33.723962" style="fill: #ffffff; stroke: #ff0000; stroke-width: 0.5"/>
    </g>
   </g>
   <g id="line2d_20">
    <path d="M 70.027257 33.723962 
L 69.085443 35.846282 
" clip-path="url(#pc71d696435)" style="fill: none; stroke: #ff0000; stroke-linecap: square"/>
    <g clip-path="url(#pc71d696435)">
     <use xlink:href="#m347dc56d2a" x="70.027257" y="33.723962" style="fill: #ffffff; stroke: #ff0000; stroke-width: 0.5"/>
     <use xlink:href="#m347dc56d2a" x="69.085443" y="35.846282" style="fill: #ffffff; stroke: #ff0000; stroke-width: 0.5"/>
    </g>
   </g>
   <g id="line2d_21">
    <path d="M 69.314595 32.923058 
L 67.662878 32.293794 
" clip-path="url(#pc71d696435)" style="fill: none; stroke: #ff0000; stroke-linecap: square"/>
    <g clip-path="url(#pc71d696435)">
     <use xlink:href="#m347dc56d2a" x="69.314595" y="32.923058" style="fill: #ffffff; stroke: #ff0000; stroke-width: 0.5"/>
     <use xlink:href="#m347dc56d2a" x="67.662878" y="32.293794" style="fill: #ffffff; stroke: #ff0000; stroke-width: 0.5"/>
    </g>
   </g>
   <g id="line2d_22">
    <path d="M 67.662878 32.293794 
L 69.091563 29.392357 
" clip-path="url(#pc71d696435)" style="fill: none; stroke: #ff0000; stroke-linecap: square"/>
    <g clip-path="url(#pc71d696435)">
     <use xlink:href="#m347dc56d2a" x="67.662878" y="32.293794" style="fill: #ffffff; stroke: #ff0000; stroke-width: 0.5"/>
     <use xlink:href="#m347dc56d2a" x="69.091563" y="29.392357" style="fill: #ffffff; stroke: #ff0000; stroke-width: 0.5"/>
    </g>
   </g>
   <g id="line2d_23">
    <path d="M 69.091563 29.392357 
L 70.472128 26.654154 
" clip-path="url(#pc71d696435)" style="fill: none; stroke: #ff0000; stroke-linecap: square"/>
    <g clip-path="url(#pc71d696435)">
     <use xlink:href="#m347dc56d2a" x="69.091563" y="29.392357" style="fill: #ffffff; stroke: #ff0000; stroke-width: 0.5"/>
     <use xlink:href="#m347dc56d2a" x="70.472128" y="26.654154" style="fill: #ffffff; stroke: #ff0000; stroke-width: 0.5"/>
    </g>
   </g>
   <g id="line2d_24">
    <path d="M 69.314595 32.923058 
L 69.269752 33.663904 
" clip-path="url(#pc71d696435)" style="fill: none; stroke: #ff0000; stroke-linecap: square"/>
    <g clip-path="url(#pc71d696435)">
     <use xlink:href="#m347dc56d2a" x="69.314595" y="32.923058" style="fill: #ffffff; stroke: #ff0000; stroke-width: 0.5"/>
     <use xlink:href="#m347dc56d2a" x="69.269752" y="33.663904" style="fill: #ffffff; stroke: #ff0000; stroke-width: 0.5"/>
    </g>
   </g>
   <g id="line2d_25">
    <path d="M 69.269752 33.663904 
L 69.016698 33.821703 
" clip-path="url(#pc71d696435)" style="fill: none; stroke: #ff0000; stroke-linecap: square"/>
    <g clip-path="url(#pc71d696435)">
     <use xlink:href="#m347dc56d2a" x="69.269752" y="33.663904" style="fill: #ffffff; stroke: #ff0000; stroke-width: 0.5"/>
     <use xlink:href="#m347dc56d2a" x="69.016698" y="33.821703" style="fill: #ffffff; stroke: #ff0000; stroke-width: 0.5"/>
    </g>
   </g>
   <g id="line2d_26">
    <path d="M 69.016698 33.821703 
L 69.343178 33.216481 
" clip-path="url(#pc71d696435)" style="fill: none; stroke: #ff0000; stroke-linecap: square"/>
    <g clip-path="url(#pc71d696435)">
     <use xlink:href="#m347dc56d2a" x="69.016698" y="33.821703" style="fill: #ffffff; stroke: #ff0000; stroke-width: 0.5"/>
     <use xlink:href="#m347dc56d2a" x="69.343178" y="33.216481" style="fill: #ffffff; stroke: #ff0000; stroke-width: 0.5"/>
    </g>
   </g>
   <g id="line2d_27">
    <path d="M 69.016698 33.821703 
L 67.267541 33.557062 
" clip-path="url(#pc71d696435)" style="fill: none; stroke: #ff0000; stroke-linecap: square"/>
    <g clip-path="url(#pc71d696435)">
     <use xlink:href="#m347dc56d2a" x="69.016698" y="33.821703" style="fill: #ffffff; stroke: #ff0000; stroke-width: 0.5"/>
     <use xlink:href="#m347dc56d2a" x="67.267541" y="33.557062" style="fill: #ffffff; stroke: #ff0000; stroke-width: 0.5"/>
    </g>
   </g>
   <g id="line2d_28">
    <path d="M 69.016698 33.821703 
L 70.812179 34.190334 
" clip-path="url(#pc71d696435)" style="fill: none; stroke: #ff0000; stroke-linecap: square"/>
    <g clip-path="url(#pc71d696435)">
     <use xlink:href="#m347dc56d2a" x="69.016698" y="33.821703" style="fill: #ffffff; stroke: #ff0000; stroke-width: 0.5"/>
     <use xlink:href="#m347dc56d2a" x="70.812179" y="34.190334" style="fill: #ffffff; stroke: #ff0000; stroke-width: 0.5"/>
    </g>
   </g>
   <g id="line2d_29">
    <path d="M 69.343178 33.216481 
L 69.079204 34.370287 
" clip-path="url(#pc71d696435)" style="fill: none; stroke: #ff0000; stroke-linecap: square"/>
    <g clip-path="url(#pc71d696435)">
     <use xlink:href="#m347dc56d2a" x="69.343178" y="33.216481" style="fill: #ffffff; stroke: #ff0000; stroke-width: 0.5"/>
     <use xlink:href="#m347dc56d2a" x="69.079204" y="34.370287" style="fill: #ffffff; stroke: #ff0000; stroke-width: 0.5"/>
    </g>
   </g>
   <g id="line2d_30">
    <path d="M 67.267541 33.557062 
L 65.278548 34.056479 
" clip-path="url(#pc71d696435)" style="fill: none; stroke: #ff0000; stroke-linecap: square"/>
    <g clip-path="url(#pc71d696435)">
     <use xlink:href="#m347dc56d2a" x="67.267541" y="33.557062" style="fill: #ffffff; stroke: #ff0000; stroke-width: 0.5"/>
     <use xlink:href="#m347dc56d2a" x="65.278548" y="34.056479" style="fill: #ffffff; stroke: #ff0000; stroke-width: 0.5"/>
    </g>
   </g>
   <g id="line2d_31">
    <path d="M 65.278548 34.056479 
L 63.446153 34.278395 
" clip-path="url(#pc71d696435)" style="fill: none; stroke: #ff0000; stroke-linecap: square"/>
    <g clip-path="url(#pc71d696435)">
     <use xlink:href="#m347dc56d2a" x="65.278548" y="34.056479" style="fill: #ffffff; stroke: #ff0000; stroke-width: 0.5"/>
     <use xlink:href="#m347dc56d2a" x="63.446153" y="34.278395" style="fill: #ffffff; stroke: #ff0000; stroke-width: 0.5"/>
    </g>
   </g>
   <g id="line2d_32">
    <path d="M 70.812179 34.190334 
L 72.416321 33.2669 
" clip-path="url(#pc71d696435)" style="fill: none; stroke: #ff0000; stroke-linecap: square"/>
    <g clip-path="url(#pc71d696435)">
     <use xlink:href="#m347dc56d2a" x="70.812179" y="34.190334" style="fill: #ffffff; stroke: #ff0000; stroke-width: 0.5"/>
     <use xlink:href="#m347dc56d2a" x="72.416321" y="33.2669" style="fill: #ffffff; stroke: #ff0000; stroke-width: 0.5"/>
    </g>
   </g>
   <g id="line2d_33">
    <path d="M 72.416321 33.2669 
L 73.536377 31.152983 
" clip-path="url(#pc71d696435)" style="fill: none; stroke: #ff0000; stroke-linecap: square"/>
    <g clip-path="url(#pc71d696435)">
     <use xlink:href="#m347dc56d2a" x="72.416321" y="33.2669" style="fill: #ffffff; stroke: #ff0000; stroke-width: 0.5"/>
     <use xlink:href="#m347dc56d2a" x="73.536377" y="31.152983" style="fill: #ffffff; stroke: #ff0000; stroke-width: 0.5"/>
    </g>
   </g>
   <g id="Line3DCollection_4">
    <path d="M 75.975906 112.490376 
L 69.314595 112.490376 
" clip-path="url(#pc71d696435)" style="fill: none; stroke: #1f77b4; stroke-width: 1.5"/>
    <path d="M 75.975906 112.490376 
L 73.402173 113.180006 
" clip-path="url(#pc71d696435)" style="fill: none; stroke: #1f77b4; stroke-width: 1.5"/>
    <path d="M 75.975906 112.490376 
L 73.402173 111.800746 
" clip-path="url(#pc71d696435)" style="fill: none; stroke: #1f77b4; stroke-width: 1.5"/>
   </g>
   <g id="text_1">
    <!-- x -->
    <g transform="translate(75.975906 112.490376) scale(0.1 -0.1)">
     <defs>
      <path id="DejaVuSans-78" d="M 3513 3500 
L 2247 1797 
L 3578 0 
L 2900 0 
L 1881 1375 
L 863 0 
L 184 0 
L 1544 1831 
L 300 3500 
L 978 3500 
L 1906 2253 
L 2834 3500 
L 3513 3500 
z
" transform="scale(0.015625)"/>
     </defs>
     <use xlink:href="#DejaVuSans-78"/>
    </g>
   </g>
   <g id="text_2">
    <!-- y -->
    <g transform="translate(69.314595 112.021966) scale(0.1 -0.1)">
     <defs>
      <path id="DejaVuSans-79" d="M 2059 -325 
Q 1816 -950 1584 -1140 
Q 1353 -1331 966 -1331 
L 506 -1331 
L 506 -850 
L 844 -850 
Q 1081 -850 1212 -737 
Q 1344 -625 1503 -206 
L 1606 56 
L 191 3500 
L 800 3500 
L 1894 763 
L 2988 3500 
L 3597 3500 
L 2059 -325 
z
" transform="scale(0.015625)"/>
     </defs>
     <use xlink:href="#DejaVuSans-79"/>
    </g>
   </g>
   <g id="text_3">
    <!-- z -->
    <g transform="translate(69.314595 105.829064) scale(0.1 -0.1)">
     <defs>
      <path id="DejaVuSans-7a" d="M 353 3500 
L 3084 3500 
L 3084 2975 
L 922 459 
L 3084 459 
L 3084 0 
L 275 0 
L 275 525 
L 2438 3041 
L 353 3041 
L 353 3500 
z
" transform="scale(0.015625)"/>
     </defs>
     <use xlink:href="#DejaVuSans-7a"/>
    </g>
   </g>
   <g id="Line3DCollection_5">
    <path d="M 69.314595 112.021966 
L 69.314595 112.490376 
" clip-path="url(#pc71d696435)" style="fill: none; stroke: #1f77b4; stroke-width: 1.5"/>
    <path d="M 69.314595 112.021966 
L 69.314595 112.887166 
" clip-path="url(#pc71d696435)" style="fill: none; stroke: #1f77b4; stroke-width: 1.5"/>
    <path d="M 69.314595 112.021966 
L 69.314595 111.516476 
" clip-path="url(#pc71d696435)" style="fill: none; stroke: #1f77b4; stroke-width: 1.5"/>
   </g>
   <g id="Line3DCollection_6">
    <path d="M 69.314595 105.829064 
L 69.314595 112.490376 
" clip-path="url(#pc71d696435)" style="fill: none; stroke: #1f77b4; stroke-width: 1.5"/>
    <path d="M 69.314595 105.829064 
L 68.624965 108.402797 
" clip-path="url(#pc71d696435)" style="fill: none; stroke: #1f77b4; stroke-width: 1.5"/>
    <path d="M 69.314595 105.829064 
L 70.004224 108.402797 
" clip-path="url(#pc71d696435)" style="fill: none; stroke: #1f77b4; stroke-width: 1.5"/>
   </g>
  </g>
  <g id="patch_6">
   <path d="M 201.992727 128.16 
L 322.952727 128.16 
L 322.952727 7.2 
L 201.992727 7.2 
z
" style="fill: #ffffff"/>
  </g>
  <g id="pane3d_4">
   <g id="patch_7">
    <path d="M 293.093242 116.570371 
L 290.732545 112.455472 
L 290.732545 19.635339 
L 293.093242 15.520439 
" style="fill: #f2f2f2; opacity: 0.5; stroke: #f2f2f2; stroke-linejoin: miter"/>
   </g>
  </g>
  <g id="pane3d_5">
   <g id="patch_8">
    <path d="M 237.482099 112.455472 
L 290.732545 112.455472 
L 290.732545 19.635339 
L 237.482099 19.635339 
" style="fill: #e6e6e6; opacity: 0.5; stroke: #e6e6e6; stroke-linejoin: miter"/>
   </g>
  </g>
  <g id="pane3d_6">
   <g id="patch_9">
    <path d="M 235.121402 116.570371 
L 293.093242 116.570371 
L 290.732545 112.455472 
L 237.482099 112.455472 
" style="fill: #ececec; opacity: 0.5; stroke: #ececec; stroke-linejoin: miter"/>
   </g>
  </g>
  <g id="grid3d_4">
   <g id="Line3DCollection_7">
    <path d="M 236.280839 116.570371 
L 238.547108 112.455472 
L 238.547108 19.635339 
" style="fill: none; stroke: #b0b0b0; stroke-width: 0.8"/>
    <path d="M 250.19408 116.570371 
L 251.327215 112.455472 
L 251.327215 19.635339 
" style="fill: none; stroke: #b0b0b0; stroke-width: 0.8"/>
    <path d="M 264.107322 116.570371 
L 264.107322 112.455472 
L 264.107322 19.635339 
" style="fill: none; stroke: #b0b0b0; stroke-width: 0.8"/>
    <path d="M 278.020563 116.570371 
L 276.887429 112.455472 
L 276.887429 19.635339 
" style="fill: none; stroke: #b0b0b0; stroke-width: 0.8"/>
    <path d="M 291.933805 116.570371 
L 289.667536 112.455472 
L 289.667536 19.635339 
" style="fill: none; stroke: #b0b0b0; stroke-width: 0.8"/>
   </g>
  </g>
  <g id="grid3d_5">
   <g id="Line3DCollection_8">
    <path d="M 293.041933 15.609876 
L 293.041933 116.480935 
L 235.172711 116.480935 
" style="fill: none; stroke: #b0b0b0; stroke-width: 0.8"/>
    <path d="M 292.440097 16.658927 
L 292.440097 115.431884 
L 235.774547 115.431884 
" style="fill: none; stroke: #b0b0b0; stroke-width: 0.8"/>
    <path d="M 291.862787 17.665228 
L 291.862787 114.425583 
L 236.351857 114.425583 
" style="fill: none; stroke: #b0b0b0; stroke-width: 0.8"/>
    <path d="M 291.308534 18.631339 
L 291.308534 113.459472 
L 236.906109 113.459472 
" style="fill: none; stroke: #b0b0b0; stroke-width: 0.8"/>
    <path d="M 290.775984 19.55962 
L 290.775984 112.531191 
L 237.43866 112.531191 
" style="fill: none; stroke: #b0b0b0; stroke-width: 0.8"/>
   </g>
  </g>
  <g id="grid3d_6">
   <g id="Line3DCollection_9">
    <path d="M 237.482099 110.599069 
L 290.732545 110.599069 
L 293.093242 114.549373 
" style="fill: none; stroke: #b0b0b0; stroke-width: 0.8"/>
    <path d="M 237.482099 85.038856 
L 290.732545 85.038856 
L 293.093242 86.72289 
" style="fill: none; stroke: #b0b0b0; stroke-width: 0.8"/>
    <path d="M 237.482099 59.478642 
L 290.732545 59.478642 
L 293.093242 58.896407 
" style="fill: none; stroke: #b0b0b0; stroke-width: 0.8"/>
    <path d="M 237.482099 33.918428 
L 290.732545 33.918428 
L 293.093242 31.069924 
" style="fill: none; stroke: #b0b0b0; stroke-width: 0.8"/>
   </g>
  </g>
  <g id="axis3d_4">
   <g id="line2d_34">
    <path d="M 293.093242 116.570371 
L 235.121402 116.570371 
" style="fill: none; stroke: #000000; stroke-width: 0.8; stroke-linecap: square"/>
   </g>
   <g id="xtick_15">
    <g id="line2d_35">
     <path d="M 236.300563 116.534559 
L 236.241307 116.642149 
" style="fill: none; stroke: #000000; stroke-width: 0.8; stroke-linecap: square"/>
    </g>
   </g>
   <g id="xtick_16">
    <g id="line2d_36">
     <path d="M 250.203942 116.534559 
L 250.174315 116.642149 
" style="fill: none; stroke: #000000; stroke-width: 0.8; stroke-linecap: square"/>
    </g>
   </g>
   <g id="xtick_17">
    <g id="line2d_37">
     <path d="M 264.107322 116.534559 
L 264.107322 116.642149 
" style="fill: none; stroke: #000000; stroke-width: 0.8; stroke-linecap: square"/>
    </g>
   </g>
   <g id="xtick_18">
    <g id="line2d_38">
     <path d="M 278.010702 116.534559 
L 278.040329 116.642149 
" style="fill: none; stroke: #000000; stroke-width: 0.8; stroke-linecap: square"/>
    </g>
   </g>
   <g id="xtick_19">
    <g id="line2d_39">
     <path d="M 291.914081 116.534559 
L 291.973336 116.642149 
" style="fill: none; stroke: #000000; stroke-width: 0.8; stroke-linecap: square"/>
    </g>
   </g>
  </g>
  <g id="axis3d_5">
   <g id="line2d_40">
    <path d="M 237.482099 112.455472 
L 235.121402 116.570371 
" style="fill: none; stroke: #000000; stroke-width: 0.8; stroke-linecap: square"/>
   </g>
   <g id="xtick_20">
    <g id="line2d_41">
     <path d="M 235.635665 116.480935 
L 234.246804 116.480935 
" style="fill: none; stroke: #000000; stroke-width: 0.8; stroke-linecap: square"/>
    </g>
   </g>
   <g id="xtick_21">
    <g id="line2d_42">
     <path d="M 236.227871 115.431884 
L 234.867898 115.431884 
" style="fill: none; stroke: #000000; stroke-width: 0.8; stroke-linecap: square"/>
    </g>
   </g>
   <g id="xtick_22">
    <g id="line2d_43">
     <path d="M 236.795944 114.425583 
L 235.463682 114.425583 
" style="fill: none; stroke: #000000; stroke-width: 0.8; stroke-linecap: square"/>
    </g>
   </g>
   <g id="xtick_23">
    <g id="line2d_44">
     <path d="M 237.341329 113.459472 
L 236.035671 113.459472 
" style="fill: none; stroke: #000000; stroke-width: 0.8; stroke-linecap: square"/>
    </g>
   </g>
   <g id="xtick_24">
    <g id="line2d_45">
     <path d="M 237.865358 112.531191 
L 236.585263 112.531191 
" style="fill: none; stroke: #000000; stroke-width: 0.8; stroke-linecap: square"/>
    </g>
   </g>
  </g>
  <g id="axis3d_6">
   <g id="line2d_46">
    <path d="M 237.482099 112.455472 
L 237.482099 19.635339 
" style="fill: none; stroke: #000000; stroke-width: 0.8; stroke-linecap: square"/>
   </g>
   <g id="xtick_25">
    <g id="line2d_47">
     <path d="M 237.908103 110.599069 
L 236.630092 110.599069 
" style="fill: none; stroke: #000000; stroke-width: 0.8; stroke-linecap: square"/>
    </g>
   </g>
   <g id="xtick_26">
    <g id="line2d_48">
     <path d="M 237.908103 85.038856 
L 236.630092 85.038856 
" style="fill: none; stroke: #000000; stroke-width: 0.8; stroke-linecap: square"/>
    </g>
   </g>
   <g id="xtick_27">
    <g id="line2d_49">
     <path d="M 237.908103 59.478642 
L 236.630092 59.478642 
" style="fill: none; stroke: #000000; stroke-width: 0.8; stroke-linecap: square"/>
    </g>
   </g>
   <g id="xtick_28">
    <g id="line2d_50">
     <path d="M 237.908103 33.918428 
L 236.630092 33.918428 
" style="fill: none; stroke: #000000; stroke-width: 0.8; stroke-linecap: square"/>
    </g>
   </g>
  </g>
  <g id="axes_2">
   <g id="line2d_51">
    <path d="M 264.107322 52.906993 
L 265.759459 53.538969 
" clip-path="url(#p58be69ebbb)" style="fill: none; stroke: #0000ff; stroke-linecap: square"/>
    <defs>
     <path id="m59adb1786c" d="M 0 0.5 
C 0.132602 0.5 0.25979 0.447317 0.353553 0.353553 
C 0.447317 0.25979 0.5 0.132602 0.5 0 
C 0.5 -0.132602 0.447317 -0.25979 0.353553 -0.353553 
C 0.25979 -0.447317 0.132602 -0.5 0 -0.5 
C -0.132602 -0.5 -0.25979 -0.447317 -0.353553 -0.353553 
C -0.447317 -0.25979 -0.5 -0.132602 -0.5 0 
C -0.5 0.132602 -0.447317 0.25979 -0.353553 0.353553 
C -0.25979 0.447317 -0.132602 0.5 0 0.5 
z
" style="stroke: #0000ff; stroke-width: 0.5"/>
    </defs>
    <g clip-path="url(#p58be69ebbb)">
     <use xlink:href="#m59adb1786c" x="264.107322" y="52.906993" style="fill: #ffffff; stroke: #0000ff; stroke-width: 0.5"/>
     <use xlink:href="#m59adb1786c" x="265.759459" y="53.538969" style="fill: #ffffff; stroke: #0000ff; stroke-width: 0.5"/>
    </g>
   </g>
   <g id="line2d_52">
    <path d="M 265.759459 53.538969 
L 264.819985 53.533936 
" clip-path="url(#p58be69ebbb)" style="fill: none; stroke: #0000ff; stroke-linecap: square"/>
    <g clip-path="url(#p58be69ebbb)">
     <use xlink:href="#m59adb1786c" x="265.759459" y="53.538969" style="fill: #ffffff; stroke: #0000ff; stroke-width: 0.5"/>
     <use xlink:href="#m59adb1786c" x="264.819985" y="53.533936" style="fill: #ffffff; stroke: #0000ff; stroke-width: 0.5"/>
    </g>
   </g>
   <g id="line2d_53">
    <path d="M 264.819985 53.533936 
L 263.87817 55.487332 
" clip-path="url(#p58be69ebbb)" style="fill: none; stroke: #0000ff; stroke-linecap: square"/>
    <g clip-path="url(#p58be69ebbb)">
     <use xlink:href="#m59adb1786c" x="264.819985" y="53.533936" style="fill: #ffffff; stroke: #0000ff; stroke-width: 0.5"/>
     <use xlink:href="#m59adb1786c" x="263.87817" y="55.487332" style="fill: #ffffff; stroke: #0000ff; stroke-width: 0.5"/>
    </g>
   </g>
   <g id="line2d_54">
    <path d="M 264.107322 52.906993 
L 262.455605 52.275178 
" clip-path="url(#p58be69ebbb)" style="fill: none; stroke: #0000ff; stroke-linecap: square"/>
    <g clip-path="url(#p58be69ebbb)">
     <use xlink:href="#m59adb1786c" x="264.107322" y="52.906993" style="fill: #ffffff; stroke: #0000ff; stroke-width: 0.5"/>
     <use xlink:href="#m59adb1786c" x="262.455605" y="52.275178" style="fill: #ffffff; stroke: #0000ff; stroke-width: 0.5"/>
    </g>
   </g>
   <g id="line2d_55">
    <path d="M 262.455605 52.275178 
L 263.88429 49.229098 
" clip-path="url(#p58be69ebbb)" style="fill: none; stroke: #0000ff; stroke-linecap: square"/>
    <g clip-path="url(#p58be69ebbb)">
     <use xlink:href="#m59adb1786c" x="262.455605" y="52.275178" style="fill: #ffffff; stroke: #0000ff; stroke-width: 0.5"/>
     <use xlink:href="#m59adb1786c" x="263.88429" y="49.229098" style="fill: #ffffff; stroke: #0000ff; stroke-width: 0.5"/>
    </g>
   </g>
   <g id="line2d_56">
    <path d="M 263.88429 49.229098 
L 265.264855 46.340608 
" clip-path="url(#p58be69ebbb)" style="fill: none; stroke: #0000ff; stroke-linecap: square"/>
    <g clip-path="url(#p58be69ebbb)">
     <use xlink:href="#m59adb1786c" x="263.88429" y="49.229098" style="fill: #ffffff; stroke: #0000ff; stroke-width: 0.5"/>
     <use xlink:href="#m59adb1786c" x="265.264855" y="46.340608" style="fill: #ffffff; stroke: #0000ff; stroke-width: 0.5"/>
    </g>
   </g>
   <g id="line2d_57">
    <path d="M 264.107322 52.906993 
L 264.062479 53.739357 
" clip-path="url(#p58be69ebbb)" style="fill: none; stroke: #0000ff; stroke-linecap: square"/>
    <g clip-path="url(#p58be69ebbb)">
     <use xlink:href="#m59adb1786c" x="264.107322" y="52.906993" style="fill: #ffffff; stroke: #0000ff; stroke-width: 0.5"/>
     <use xlink:href="#m59adb1786c" x="264.062479" y="53.739357" style="fill: #ffffff; stroke: #0000ff; stroke-width: 0.5"/>
    </g>
   </g>
   <g id="line2d_58">
    <path d="M 264.062479 53.739357 
L 263.809425 54.002589 
" clip-path="url(#p58be69ebbb)" style="fill: none; stroke: #0000ff; stroke-linecap: square"/>
    <g clip-path="url(#p58be69ebbb)">
     <use xlink:href="#m59adb1786c" x="264.062479" y="53.739357" style="fill: #ffffff; stroke: #0000ff; stroke-width: 0.5"/>
     <use xlink:href="#m59adb1786c" x="263.809425" y="54.002589" style="fill: #ffffff; stroke: #0000ff; stroke-width: 0.5"/>
    </g>
   </g>
   <g id="line2d_59">
    <path d="M 263.809425 54.002589 
L 264.135905 53.443968 
" clip-path="url(#p58be69ebbb)" style="fill: none; stroke: #0000ff; stroke-linecap: square"/>
    <g clip-path="url(#p58be69ebbb)">
     <use xlink:href="#m59adb1786c" x="263.809425" y="54.002589" style="fill: #ffffff; stroke: #0000ff; stroke-width: 0.5"/>
     <use xlink:href="#m59adb1786c" x="264.135905" y="53.443968" style="fill: #ffffff; stroke: #0000ff; stroke-width: 0.5"/>
    </g>
   </g>
   <g id="line2d_60">
    <path d="M 263.809425 54.002589 
L 262.060269 53.707743 
" clip-path="url(#p58be69ebbb)" style="fill: none; stroke: #0000ff; stroke-linecap: square"/>
    <g clip-path="url(#p58be69ebbb)">
     <use xlink:href="#m59adb1786c" x="263.809425" y="54.002589" style="fill: #ffffff; stroke: #0000ff; stroke-width: 0.5"/>
     <use xlink:href="#m59adb1786c" x="262.060269" y="53.707743" style="fill: #ffffff; stroke: #0000ff; stroke-width: 0.5"/>
    </g>
   </g>
   <g id="line2d_61">
    <path d="M 263.809425 54.002589 
L 265.604906 54.343788 
" clip-path="url(#p58be69ebbb)" style="fill: none; stroke: #0000ff; stroke-linecap: square"/>
    <g clip-path="url(#p58be69ebbb)">
     <use xlink:href="#m59adb1786c" x="263.809425" y="54.002589" style="fill: #ffffff; stroke: #0000ff; stroke-width: 0.5"/>
     <use xlink:href="#m59adb1786c" x="265.604906" y="54.343788" style="fill: #ffffff; stroke: #0000ff; stroke-width: 0.5"/>
    </g>
   </g>
   <g id="line2d_62">
    <path d="M 264.135905 53.443968 
L 263.871931 54.627104 
" clip-path="url(#p58be69ebbb)" style="fill: none; stroke: #0000ff; stroke-linecap: square"/>
    <g clip-path="url(#p58be69ebbb)">
     <use xlink:href="#m59adb1786c" x="264.135905" y="53.443968" style="fill: #ffffff; stroke: #0000ff; stroke-width: 0.5"/>
     <use xlink:href="#m59adb1786c" x="263.871931" y="54.627104" style="fill: #ffffff; stroke: #0000ff; stroke-width: 0.5"/>
    </g>
   </g>
   <g id="line2d_63">
    <path d="M 262.060269 53.707743 
L 260.071275 54.110737 
" clip-path="url(#p58be69ebbb)" style="fill: none; stroke: #0000ff; stroke-linecap: square"/>
    <g clip-path="url(#p58be69ebbb)">
     <use xlink:href="#m59adb1786c" x="262.060269" y="53.707743" style="fill: #ffffff; stroke: #0000ff; stroke-width: 0.5"/>
     <use xlink:href="#m59adb1786c" x="260.071275" y="54.110737" style="fill: #ffffff; stroke: #0000ff; stroke-width: 0.5"/>
    </g>
   </g>
   <g id="line2d_64">
    <path d="M 260.071275 54.110737 
L 258.238881 54.246981 
" clip-path="url(#p58be69ebbb)" style="fill: none; stroke: #0000ff; stroke-linecap: square"/>
    <g clip-path="url(#p58be69ebbb)">
     <use xlink:href="#m59adb1786c" x="260.071275" y="54.110737" style="fill: #ffffff; stroke: #0000ff; stroke-width: 0.5"/>
     <use xlink:href="#m59adb1786c" x="258.238881" y="54.246981" style="fill: #ffffff; stroke: #0000ff; stroke-width: 0.5"/>
    </g>
   </g>
   <g id="line2d_65">
    <path d="M 265.604906 54.343788 
L 267.209048 53.322182 
" clip-path="url(#p58be69ebbb)" style="fill: none; stroke: #0000ff; stroke-linecap: square"/>
    <g clip-path="url(#p58be69ebbb)">
     <use xlink:href="#m59adb1786c" x="265.604906" y="54.343788" style="fill: #ffffff; stroke: #0000ff; stroke-width: 0.5"/>
     <use xlink:href="#m59adb1786c" x="267.209048" y="53.322182" style="fill: #ffffff; stroke: #0000ff; stroke-width: 0.5"/>
    </g>
   </g>
   <g id="line2d_66">
    <path d="M 267.209048 53.322182 
L 268.329105 51.139569 
" clip-path="url(#p58be69ebbb)" style="fill: none; stroke: #0000ff; stroke-linecap: square"/>
    <g clip-path="url(#p58be69ebbb)">
     <use xlink:href="#m59adb1786c" x="267.209048" y="53.322182" style="fill: #ffffff; stroke: #0000ff; stroke-width: 0.5"/>
     <use xlink:href="#m59adb1786c" x="268.329105" y="51.139569" style="fill: #ffffff; stroke: #0000ff; stroke-width: 0.5"/>
    </g>
   </g>
   <g id="Line3DCollection_10">
    <path d="M 270.768634 112.490376 
L 264.107322 112.490376 
" clip-path="url(#p58be69ebbb)" style="fill: none; stroke: #1f77b4; stroke-width: 1.5"/>
    <path d="M 270.768634 112.490376 
L 268.1949 113.180006 
" clip-path="url(#p58be69ebbb)" style="fill: none; stroke: #1f77b4; stroke-width: 1.5"/>
    <path d="M 270.768634 112.490376 
L 268.1949 111.800746 
" clip-path="url(#p58be69ebbb)" style="fill: none; stroke: #1f77b4; stroke-width: 1.5"/>
   </g>
   <g id="text_4">
    <!-- x -->
    <g transform="translate(270.768634 112.490376) scale(0.1 -0.1)">
     <use xlink:href="#DejaVuSans-78"/>
    </g>
   </g>
   <g id="text_5">
    <!-- y -->
    <g transform="translate(264.107322 112.021966) scale(0.1 -0.1)">
     <use xlink:href="#DejaVuSans-79"/>
    </g>
   </g>
   <g id="text_6">
    <!-- z -->
    <g transform="translate(264.107322 105.829064) scale(0.1 -0.1)">
     <use xlink:href="#DejaVuSans-7a"/>
    </g>
   </g>
   <g id="Line3DCollection_11">
    <path d="M 264.107322 112.021966 
L 264.107322 112.490376 
" clip-path="url(#p58be69ebbb)" style="fill: none; stroke: #1f77b4; stroke-width: 1.5"/>
    <path d="M 264.107322 112.021966 
L 264.107322 112.887166 
" clip-path="url(#p58be69ebbb)" style="fill: none; stroke: #1f77b4; stroke-width: 1.5"/>
    <path d="M 264.107322 112.021966 
L 264.107322 111.516476 
" clip-path="url(#p58be69ebbb)" style="fill: none; stroke: #1f77b4; stroke-width: 1.5"/>
   </g>
   <g id="Line3DCollection_12">
    <path d="M 264.107322 105.829064 
L 264.107322 112.490376 
" clip-path="url(#p58be69ebbb)" style="fill: none; stroke: #1f77b4; stroke-width: 1.5"/>
    <path d="M 264.107322 105.829064 
L 263.417692 108.402797 
" clip-path="url(#p58be69ebbb)" style="fill: none; stroke: #1f77b4; stroke-width: 1.5"/>
    <path d="M 264.107322 105.829064 
L 264.796952 108.402797 
" clip-path="url(#p58be69ebbb)" style="fill: none; stroke: #1f77b4; stroke-width: 1.5"/>
   </g>
  </g>
  <g id="axes_3">
   <g id="patch_10">
    <path d="M 7.2 273.312 
L 128.16 273.312 
L 128.16 152.352 
L 7.2 152.352 
z
" style="fill: #ffffff"/>
   </g>
   <g id="matplotlib.axis_1"/>
   <g id="matplotlib.axis_2"/>
   <g id="line2d_67">
    <path d="M 68.750329 213.807532 
L 71.660678 213.660768 
" clip-path="url(#pac55c2eef4)" style="fill: none; stroke: #ff0000; stroke-width: 1.5; stroke-linecap: square"/>
   </g>
   <g id="line2d_68">
    <path d="M 71.660678 213.660768 
L 70.015052 223.889931 
" clip-path="url(#pac55c2eef4)" style="fill: none; stroke: #ff0000; stroke-width: 1.5; stroke-linecap: square"/>
   </g>
   <g id="line2d_69">
    <path d="M 70.015052 223.889931 
L 68.330183 234.339382 
" clip-path="url(#pac55c2eef4)" style="fill: none; stroke: #ff0000; stroke-width: 1.5; stroke-linecap: square"/>
   </g>
   <g id="line2d_70">
    <path d="M 68.750329 213.807532 
L 65.88596 213.951977 
" clip-path="url(#pac55c2eef4)" style="fill: none; stroke: #ff0000; stroke-width: 1.5; stroke-linecap: square"/>
   </g>
   <g id="line2d_71">
    <path d="M 65.88596 213.951977 
L 68.375542 221.885652 
" clip-path="url(#pac55c2eef4)" style="fill: none; stroke: #ff0000; stroke-width: 1.5; stroke-linecap: square"/>
   </g>
   <g id="line2d_72">
    <path d="M 68.375542 221.885652 
L 70.640897 229.675464 
" clip-path="url(#pac55c2eef4)" style="fill: none; stroke: #ff0000; stroke-width: 1.5; stroke-linecap: square"/>
   </g>
   <g id="line2d_73">
    <path d="M 68.750329 213.807532 
L 68.671431 208.548774 
" clip-path="url(#pac55c2eef4)" style="fill: none; stroke: #ff0000; stroke-width: 1.5; stroke-linecap: square"/>
   </g>
   <g id="line2d_74">
    <path d="M 68.671431 208.548774 
L 68.226775 202.502959 
" clip-path="url(#pac55c2eef4)" style="fill: none; stroke: #ff0000; stroke-width: 1.5; stroke-linecap: square"/>
   </g>
   <g id="line2d_75">
    <path d="M 68.226775 202.502959 
L 68.800115 199.9531 
" clip-path="url(#pac55c2eef4)" style="fill: none; stroke: #ff0000; stroke-width: 1.5; stroke-linecap: square"/>
   </g>
   <g id="line2d_76">
    <path d="M 68.800115 199.9531 
L 68.334674 198.070633 
" clip-path="url(#pac55c2eef4)" style="fill: none; stroke: #ff0000; stroke-width: 1.5; stroke-linecap: square"/>
   </g>
   <g id="line2d_77">
    <path d="M 68.226775 202.502959 
L 65.16145 204.26014 
" clip-path="url(#pac55c2eef4)" style="fill: none; stroke: #ff0000; stroke-width: 1.5; stroke-linecap: square"/>
   </g>
   <g id="line2d_78">
    <path d="M 65.16145 204.26014 
L 61.609223 209.743941 
" clip-path="url(#pac55c2eef4)" style="fill: none; stroke: #ff0000; stroke-width: 1.5; stroke-linecap: square"/>
   </g>
   <g id="line2d_79">
    <path d="M 61.609223 209.743941 
L 58.311189 214.699207 
" clip-path="url(#pac55c2eef4)" style="fill: none; stroke: #ff0000; stroke-width: 1.5; stroke-linecap: square"/>
   </g>
   <g id="line2d_80">
    <path d="M 68.226775 202.502959 
L 71.396798 204.023985 
" clip-path="url(#pac55c2eef4)" style="fill: none; stroke: #ff0000; stroke-width: 1.5; stroke-linecap: square"/>
   </g>
   <g id="line2d_81">
    <path d="M 71.396798 204.023985 
L 74.183566 209.725896 
" clip-path="url(#pac55c2eef4)" style="fill: none; stroke: #ff0000; stroke-width: 1.5; stroke-linecap: square"/>
   </g>
   <g id="line2d_82">
    <path d="M 74.183566 209.725896 
L 75.96788 213.659478 
" clip-path="url(#pac55c2eef4)" style="fill: none; stroke: #ff0000; stroke-width: 1.5; stroke-linecap: square"/>
   </g>
   <g id="patch_11">
    <path d="M 7.2 273.312 
L 7.2 152.352 
" style="fill: none; stroke: #000000; stroke-width: 0.8; stroke-linejoin: miter; stroke-linecap: square"/>
   </g>
   <g id="patch_12">
    <path d="M 128.16 273.312 
L 128.16 152.352 
" style="fill: none; stroke: #000000; stroke-width: 0.8; stroke-linejoin: miter; stroke-linecap: square"/>
   </g>
   <g id="patch_13">
    <path d="M 7.2 273.312 
L 128.16 273.312 
" style="fill: none; stroke: #000000; stroke-width: 0.8; stroke-linejoin: miter; stroke-linecap: square"/>
   </g>
   <g id="patch_14">
    <path d="M 7.2 152.352 
L 128.16 152.352 
" style="fill: none; stroke: #000000; stroke-width: 0.8; stroke-linejoin: miter; stroke-linecap: square"/>
   </g>
  </g>
  <g id="axes_4">
   <g id="patch_15">
    <path d="M 201.992727 273.312 
L 322.952727 273.312 
L 322.952727 152.352 
L 201.992727 152.352 
z
" style="fill: #ffffff"/>
   </g>
   <g id="matplotlib.axis_3"/>
   <g id="matplotlib.axis_4"/>
   <g id="line2d_83">
    <path d="M 263.543057 213.807532 
L 267.440011 213.611015 
" clip-path="url(#p59f7f05273)" style="fill: none; stroke: #0000ff; stroke-width: 1.5; stroke-linecap: square"/>
   </g>
   <g id="line2d_84">
    <path d="M 267.440011 213.611015 
L 265.235673 227.301115 
" clip-path="url(#p59f7f05273)" style="fill: none; stroke: #0000ff; stroke-width: 1.5; stroke-linecap: square"/>
   </g>
   <g id="line2d_85">
    <path d="M 265.235673 227.301115 
L 262.976092 241.514169 
" clip-path="url(#p59f7f05273)" style="fill: none; stroke: #0000ff; stroke-width: 1.5; stroke-linecap: square"/>
   </g>
   <g id="line2d_86">
    <path d="M 263.543057 213.807532 
L 259.728102 213.999913 
" clip-path="url(#p59f7f05273)" style="fill: none; stroke: #0000ff; stroke-width: 1.5; stroke-linecap: square"/>
   </g>
   <g id="line2d_87">
    <path d="M 259.728102 213.999913 
L 263.050108 224.432467 
" clip-path="url(#p59f7f05273)" style="fill: none; stroke: #0000ff; stroke-width: 1.5; stroke-linecap: square"/>
   </g>
   <g id="line2d_88">
    <path d="M 263.050108 224.432467 
L 266.002208 234.447706 
" clip-path="url(#p59f7f05273)" style="fill: none; stroke: #0000ff; stroke-width: 1.5; stroke-linecap: square"/>
   </g>
   <g id="line2d_89">
    <path d="M 263.543057 213.807532 
L 263.437296 206.758318 
" clip-path="url(#p59f7f05273)" style="fill: none; stroke: #0000ff; stroke-width: 1.5; stroke-linecap: square"/>
   </g>
   <g id="line2d_90">
    <path d="M 263.437296 206.758318 
L 262.840256 198.632669 
" clip-path="url(#p59f7f05273)" style="fill: none; stroke: #0000ff; stroke-width: 1.5; stroke-linecap: square"/>
   </g>
   <g id="line2d_91">
    <path d="M 262.840256 198.632669 
L 263.609736 195.252062 
" clip-path="url(#p59f7f05273)" style="fill: none; stroke: #0000ff; stroke-width: 1.5; stroke-linecap: square"/>
   </g>
   <g id="line2d_92">
    <path d="M 263.609736 195.252062 
L 262.983467 192.621176 
" clip-path="url(#p59f7f05273)" style="fill: none; stroke: #0000ff; stroke-width: 1.5; stroke-linecap: square"/>
   </g>
   <g id="line2d_93">
    <path d="M 262.840256 198.632669 
L 258.731967 201.00873 
" clip-path="url(#p59f7f05273)" style="fill: none; stroke: #0000ff; stroke-width: 1.5; stroke-linecap: square"/>
   </g>
   <g id="line2d_94">
    <path d="M 258.731967 201.00873 
L 253.955725 208.351935 
" clip-path="url(#p59f7f05273)" style="fill: none; stroke: #0000ff; stroke-width: 1.5; stroke-linecap: square"/>
   </g>
   <g id="line2d_95">
    <path d="M 253.955725 208.351935 
L 249.522693 215.005103 
" clip-path="url(#p59f7f05273)" style="fill: none; stroke: #0000ff; stroke-width: 1.5; stroke-linecap: square"/>
   </g>
   <g id="line2d_96">
    <path d="M 262.840256 198.632669 
L 267.10061 200.655855 
" clip-path="url(#p59f7f05273)" style="fill: none; stroke: #0000ff; stroke-width: 1.5; stroke-linecap: square"/>
   </g>
   <g id="line2d_97">
    <path d="M 267.10061 200.655855 
L 270.812763 208.346276 
" clip-path="url(#p59f7f05273)" style="fill: none; stroke: #0000ff; stroke-width: 1.5; stroke-linecap: square"/>
   </g>
   <g id="line2d_98">
    <path d="M 270.812763 208.346276 
L 273.111672 213.611251 
" clip-path="url(#p59f7f05273)" style="fill: none; stroke: #0000ff; stroke-width: 1.5; stroke-linecap: square"/>
   </g>
   <g id="patch_16">
    <path d="M 201.992727 273.312 
L 201.992727 152.352 
" style="fill: none; stroke: #000000; stroke-width: 0.8; stroke-linejoin: miter; stroke-linecap: square"/>
   </g>
   <g id="patch_17">
    <path d="M 322.952727 273.312 
L 322.952727 152.352 
" style="fill: none; stroke: #000000; stroke-width: 0.8; stroke-linejoin: miter; stroke-linecap: square"/>
   </g>
   <g id="patch_18">
    <path d="M 201.992727 273.312 
L 322.952727 273.312 
" style="fill: none; stroke: #000000; stroke-width: 0.8; stroke-linejoin: miter; stroke-linecap: square"/>
   </g>
   <g id="patch_19">
    <path d="M 201.992727 152.352 
L 322.952727 152.352 
" style="fill: none; stroke: #000000; stroke-width: 0.8; stroke-linejoin: miter; stroke-linecap: square"/>
   </g>
  </g>
 </g>
 <defs>
  <clipPath id="pc71d696435">
   <rect x="7.2" y="7.2" width="120.96" height="120.96"/>
  </clipPath>
  <clipPath id="p58be69ebbb">
   <rect x="201.992727" y="7.2" width="120.96" height="120.96"/>
  </clipPath>
  <clipPath id="pac55c2eef4">
   <rect x="7.2" y="152.352" width="120.96" height="120.96"/>
  </clipPath>
  <clipPath id="p59f7f05273">
   <rect x="201.992727" y="152.352" width="120.96" height="120.96"/>
  </clipPath>
 </defs>
</svg>
